<mxfile host="65bd71144e">
    <diagram id="HIP3nbAZw_EuaXWnEj3U" name="Page-1">
        <mxGraphModel dx="1086" dy="528" grid="1" gridSize="10" guides="1" tooltips="1" connect="1" arrows="1" fold="1" page="1" pageScale="1" pageWidth="850" pageHeight="1100" math="0" shadow="0">
            <root>
                <mxCell id="0"/>
                <mxCell id="1" parent="0"/>
                <mxCell id="7" value="http://ics2o.mths.ca" style="swimlane;whiteSpace=wrap;html=1;fillColor=default;" parent="1" vertex="1">
                    <mxGeometry x="40" y="40" width="760" height="480" as="geometry"/>
                </mxCell>
                <mxCell id="8" value="&lt;font style=&quot;font-size: 20px;&quot;&gt;Random Positive or Negative #, in Js&lt;/font&gt;" style="text;strokeColor=none;align=center;fillColor=none;html=1;verticalAlign=middle;whiteSpace=wrap;rounded=0;" vertex="1" parent="7">
                    <mxGeometry x="170" y="40" width="400" height="30" as="geometry"/>
                </mxCell>
                <mxCell id="9" value="Select your Number..." style="text;strokeColor=none;align=center;fillColor=none;html=1;verticalAlign=middle;whiteSpace=wrap;rounded=0;fontSize=17;" vertex="1" parent="7">
                    <mxGeometry y="80" width="220" height="30" as="geometry"/>
                </mxCell>
                <mxCell id="10" value="" style="verticalLabelPosition=bottom;verticalAlign=top;html=1;shape=mxgraph.basic.donut;dx=25;labelBorderColor=none;labelBackgroundColor=#000000;fillColor=#000000;" vertex="1" parent="7">
                    <mxGeometry x="30" y="120" width="20" height="20" as="geometry"/>
                </mxCell>
                <mxCell id="11" value="Positive" style="text;strokeColor=none;align=center;fillColor=none;html=1;verticalAlign=middle;whiteSpace=wrap;rounded=0;fontSize=20;" vertex="1" parent="7">
                    <mxGeometry x="80" y="125" width="40" height="10" as="geometry"/>
                </mxCell>
                <mxCell id="13" value="" style="verticalLabelPosition=bottom;verticalAlign=top;html=1;shape=mxgraph.basic.donut;dx=25;labelBorderColor=none;labelBackgroundColor=light-dark(#ffffff, #ededed);fillColor=light-dark(#ffffff, #ededed);" vertex="1" parent="7">
                    <mxGeometry x="150" y="120" width="20" height="20" as="geometry"/>
                </mxCell>
                <mxCell id="14" value="&lt;font style=&quot;font-size: 20px;&quot;&gt;Negative&lt;/font&gt;" style="text;strokeColor=none;align=center;fillColor=none;html=1;verticalAlign=middle;whiteSpace=wrap;rounded=0;" vertex="1" parent="7">
                    <mxGeometry x="190" y="115" width="60" height="30" as="geometry"/>
                </mxCell>
                <mxCell id="15" value="&lt;font style=&quot;font-size: 20px;&quot;&gt;GENERATE&lt;/font&gt;" style="rounded=1;whiteSpace=wrap;html=1;" vertex="1" parent="7">
                    <mxGeometry x="30" y="160" width="120" height="50" as="geometry"/>
                </mxCell>
                <mxCell id="16" value="" style="shape=image;imageAspect=0;aspect=fixed;verticalLabelPosition=bottom;verticalAlign=top;image=data:image/jpeg,/9j/4AAQSkZJRgABAQAAAQABAAD/2wCEAAUDBAgICAgICAgICAgICAgICAgICAgICAgICAgICAgICAgIChALCAgOCQgIDRUNDhERExMTCAsWGBYSGBASExIBBQUFCAcIDwkJDxIQEBASEhISEhISEhISEhISFRUSEhIVEhUSEhISEhISEhISEhISEhISEhISFRISEhISEhISEv/AABEIAtAFAAMBIgACEQEDEQH/xAAdAAEAAQUBAQEAAAAAAAAAAAAABwEEBQYIAwIJ/8QAXRAAAgIAAwQEBQ4LBAcGBQQDAAECAwQFEQYSITEHE0FRFCJhcbIIFRYyMzRSU3JzgZGhsSM1QlRidIKSk9HSg7PB8BckQ5SiwtNjo7TD4eJEVWTU8QklhJUmRXX/xAAcAQEAAQUBAQAAAAAAAAAAAAAABQIDBAYHAQj/xABKEQACAQICBQcJBAkDBAEFAQAAAQIDEQQFBhIhMVEyQWFxgZGxExQVIjNScqHBFjRT0QcjQnOCkrLh8DVUYiQ2Q/GiJWNkk9IX/9oADAMBAAIRAxEAPwDssAAAAAAAAAAAAAAAAAAAAAAAAAAAAAAAAAAAAAAAAAAAAAAAAAAAAAAAAAAAAAAAAAAAAAAAAAAAAAAAAAAAAAAAAAAAAAAAAAAAAAAAAAAAAAAAAAAAAAAAAAAAAAAAAAAAAAAAAAAAAAAAAAAAAAAAAAAAAAAAAAAAAAAAAAAAAAAAAAAAAAAAAAAAAAAAAAAAAAAAAAAAAAAAAAAAAAAAAAAAAAAAAAAAAAAAAAAAAAAAAAAAAAAAAAAAAAAAAAAAAAAAAAAAAAAAAAAAAAAAAAAAAAAAAAAAAAAAAAAAAAAAAAAAAAAAAAAAAAAAAAAAAAAAAAAAAAAAAAAAAAAAAAAAAAAAAAAAAAAAAAAAAAAAAAAAAAAAAAAAAAAAAAAAAAAAAAAAAAAAAAAAAAAAAAAAAAAAAAAAAAAAAAAAAAAAAAAAAAAAAAAAAAAAAAAAAAAAAAAAAAAAAAAAAAAAAAAAAAAAAAAAAAAAAAAAAAAAAAAAAAAAAAAAAAAAAAAAAAAAAAAAAAAAAAAAAAAAAAAAAAAAAAAAAAAAAAAAAAAAAAAAAAAAAAAAAAAAAAAAAAAAAAAAAAAAAAAAAAAAAAAAAAAAAAAAAAAAAAAAAAAAAAAAAAAAAAAAAAAAAAAAAAAAAAAAAAAAAAAAAAAAAAAAAAAAAAAAAAAAAAAAAAAAAAAAAAAAAAAAAAAAAAAAAAAAAAAAAAAAAAAAAAAAAAAAAAAAAAAAAAAAAAAAAAAAAAAAAAAAAAAAAAAAAAAAAAAAAAAAAAAAAAAAAAAAAAAAAAAAAAAAAAAAAAAAAAAAAAAAAAAAAAAAAAAAAAAAAAAAAAAAAAAAAAAAAAAAAAAAAAAAAAAAAAAAAAAAAAAAAAAAAAAAAAAAAAAAAAAAAAAAAAAAAAAAAAAAAAAAAAAAAAAAAAAAAAAAAAAAAAAAAAAAAAAAAAAAAAAAAAAAAAAAAAAAAAAAAAAAAAAAAAAAAAAAAAAAAAAAAAAAAAAAAAAAAAAAAAAAAAAAAAAAAAAAAAAAAAAAAAAAAAAAAAAAAAAAAAAAAAAAAAAAAAAAAAAAAAAAAAAAAAAAAAAAAAAAAAAAAAAAAAAAAAAAAAAAAAAAAAAAAAAAAAAAAAAAAAAAAAAAAAAAAAAAAAAAAAAAAAAAAAAAAAAAAAAAAAAAAAAAAAAAAAAAAAAAAAAAAAAAAAAAAAAAAAAAAAAAAAAAAAAAAAAAAAAAAAAAAAAAAAAAAAAAAAAAAAAAAAAAAAAAAAAAAAAAAAAAAAAAAAAAAAAAAAAAAAAAAAAAAAAAAAAAAAAAAAAAAAAAAAAAAAAAAAAAAAAAAAAAAAAAAAAAAAAAAAAAAAAAAAAAAAAAAAAAAAAAAAAAAAAAAAAAAAAAAAAAAAAAAAAAAAAAAAAAAAAAAAAAAAAAAAAAAAAAAAAAAAAAAAAAAAAAAAAAAAAAAAAAAAAAAAAAAAAAAAAAAAAAAAGj9LW1OLyrD0W4WNLlbd1cuujOaS3Jz8VQnHj4pG76YM4+BgF5qLtfPxxBLYTJcRiqflKdrbtrsa/mGkuDwVbyNXW1t+yN13nQAOfF0uZx/wDRvyPDz0+y4y+SdMt6kljcNVKDfjTwzlCUV5K7G97Tn7ZcmX6ujmMgr2T6ntMWjpjl9SWreS6XHYTYCxybM6cXTDEUWKyqxaxkvua7Gu5l6yDknF2e82iE4zipRd09qKgo2GeFRUDUo2AVB86mjdJW38cpnXTXT199kescZS3IQqblFSlLRttyjJJL4L8mt/D4apXmqdNXbMXGY2lhaTq1XaKtt6zewR10ddJCzPESw11CotcHOpwm5xmo6bybcU1JamybS7X4HLrKqsXbKuV0XKGkJyWkWk3KUU1Hi+0uVcDXp1fJSi9a17Lb4FjD5rhq1Dy8ZrUva72be02EGEybanAYyfV4XF03Wbrm64TTmorTVuPNLivrMvOainJvhFNt9yS1ZjTpyg7STT4PYZlOvTqR1oSTXFO6PQEOZt0yyhfZDD4SFlUZuMZzucJTS4OW6q2knx7X/gSRsbn9eZYSvFVpx3tYzg3xrsjwnDX8pJ8n2pozMTluIw8FOpGye4j8HnWExdR0qUryW9flxM2CiKMwSVPoFCouACgYBUFIlQACgAKg+QAfQPnUqeXBUFCmp6D6BSIYBUHx9ZE3SvtxmGX45UYadca+phPx6lNtyck2nr5PsMrBYOeLqeTp2vv27DAzLMaWBpeVq3tdLZt2slwENdEO1WZY/MXDE4qVtSpnJ17lMIatpR03IJvTj2kxlWOwU8JU8nOzdk9nSU5XmVPH0fLU00rtbeg+geN03GMmuOkW/pSIHx3S1mzlOEVhILekouNNjmkm0uMrXFv6C5gMtrYxtUrbN93beWc0zrD5co+Wv617WV9xPwI36I9u55gpYbGTi8VDWcJJRgra/JGKSUo+QkbUx8VhamGqOnUW1d3YZWAx9LGUVWpO6fenwfSfQIY226TszwmPxWFphhFXTPdi7KbZT03Iy1bVyT4t9nYZXol25x+Z4u6jFdRuRw7tj1dcoS3lZCHN2SW7pJ8OZm1MmxEKHl5W1bJ79tn0EbS0kwlTE+ax1ta7W7ZddPYSkD5BFE+fQPkrqAVB8tgA+gfKZUAqChRgH0D4ZSctE32LiweN2PQGn4LpHyixyj4XGvdbT66Mqlqnpwc0tTZcBjasRXG6myNtU1rGcHrGXZwaL1ShUp8uLXWmWKOLo1m1TkpW4NF2DV+kLayGU4aNzg7bLJ9XVVruqUtHKTlLR7sVFN66feahsl0tvE4qrD4nCxpjdONcLIWuelk3uwUouC4NtLXyoyKOW4irSdWEbxXP1GFic6wmHrqhUlaTts6920lcFNRqYJKlQU1GoBUFGxqAVBRlUAADQ+l7a/FZTDCvCxplK+dil10JzUVCMWtFCcePFl/D4edeoqcN73GLjcZTwlGVapyY77bTfAc+4bpZzTr67LXT1MZLrKKqlHfj2pSnKUlLu0a5E55LmVWLoqxFMt+u2KlF+fsfc09U0ZWPyutg7Ootj51tXUYGV57hswbVFu65nsduJfg1zpDzu7L8vuxVChKytx0VilKHjS0bkoyTf1kQT6Xs4fZglp8Gi37db2VYLKK+Lhr07WTttdijM9IcLgKip1ta7V1ZXOggYrZfHTxODw99m7v21QnLd1Ud5rjom3ovpMpqR04uDcXzO3cTNKoqkFNbmk+8qCmoKSsqChQA+gUGoBUHyVAKg8cTKSjPd03lGTjry1S1WvetTnCzpLzqcV/re5vaS8SqlNa8dE3B8OJJZdldXGtqm16tr3fH/wBEJm+e0ct1fKqT1r2t0W/M6VBp/RHmeJxeV1X4m2Vts7LlvyUU2oWzguEElolHQ28wq9J0qjpvmbWzoJPC4hYilGqk0pK9mVBQFoyCoPlFQLlQUGoBUHyyoBUFNSqAAAAAAAAAAAAAAAAAAAAAAAAAAAAAAAAAAAAAAAAAAAAAAAAAAAAAAAAAAAAAAAAAAAAAAAAAAAAAAAAAAAAAAAAAAAIy9UJDXL6Hpru4qL17tYWR1+3T6SEMHUrLaq29FZZXBtdinNRb+0nfp+/Fcf1ir72QTgLNy2qfwLa5fuzi/wDA6Bo435i2t95eByXS+K9JpPc4x8SYZdC9G7qsbepacNY1tLu10jxRFW1OSWZfirMLduuVejUl7WcZLWM0uxNdh1D644fd1d1KWmvukP5nO/SvmtWMzS6yiSlXFQqU1xUnBaSa71rqYeQY/FVq7jUbcdV71uZn6U5VgcNho1KCSk2lZPerbdhs3qfs5nDE3YGT1rtg7oLush7bTzxa+pEzZhjasPXK2+yFNceMp2SUIrzt8CBugfDylmnWfk1Ye1y4cNJ6RXHs4mP6Utp55jjJxUn4Nh5yhTD8luOqla1y3nx49iKMflSxeYuEPVWqnJ/5zsvZXnrwGURnNa0taUYJ86XF8FtJgt6Tcli2vC9dOGqpua+vc5GWyDavL8e93CYqu2aWvV6uFmna+rmlJry6HOeUbL5hiquuw+Ftsreuk4rSMtOemr4mOTtw9ya36b6J6p+1nXZB/ZJP7y5LRzDTTjSqNyXSn3rZYsx0xxtNqdekvJy3NJrZ0PbfuOuDWdr9tsBljUL7JSuklJU1R37N1vTefFRivO15NTH7N7XTxeS3Y3ReEUU2RsS5dbCPt0l+S+D+s56xWJnbOdtknOyxynOcnrKUnxbb7SMyrIvOKk1V2KDs0t7ZNZ7pP5rRpyoK7qK6b3JdXE6N2H27wmazsqqjZVZWlLcs3dZR10co6Pjo+fnRgel/ZrCY66qfh2GwuNhSoqu+2EOup35yhrFveSUnZpJL4S7OFh0Z9Hcq/BMzeMlGxpW9VXCLg4yXtHNvjrF8eH3GF9UNVpj8LPReNhN3Xv3LZvT6Os/4i5hsNS9IqGFm0tu1q9mt6270WcbjK7yh1MdTUneOy9rptWezczL9FGylGExvXWZhgr8Qq5KrD4e6E5aS03rGtd58F3d5YeqK3fCsDo1vdTdvLXklOvd17ucvqMR0E1KWbp6e1wt0tdOT3q0n5ODZq+1eGlXjsZrXOuMsViHDehKG9HrZaNby8ZaNcfKiYoYWbzNynU1nGCe5K97q3ZvNdxWNgsmUKdPVjOo1vbtazv27uY2foPxFVWZysuthVFYWyKdkowi3OdfBOTXHxeROeEzXCYlWxqxNFyimrVXdXPcT1T3tyT3e3mcq00Tse7CE7HpruwhKb079IpvQlroBws4QzNTqnByhSk5wlDVbtu8lvLjxaMfSHLoPWxOvtWqtXZxt/mwzNE84qQ1cHqXi9d623g3bdb5mCznYPDu6c8FmuXyocm0rMRBSr46uOsG1LT6OBKmwOFweXZZCMMZRbTBzndio2Vql2N+P4yk4wS4LTXhojnDH16W2x09rbYuHZpNrQlvJaVHY7ENL3SGJm+CX+1lD/kX1HmbYWq6NKE6rknKKWxLfzt322Pchx1GOJrVKdFRlGEpN6ze7mStsuSL7LMrfBZjgf96o/rMvCxOO8mmtNd5Phpprrr3HIMuT8x1rXBeDKK4LqUl5FuaL7CGzfKI4HUtJvWvzW3W/M2PINIJ5iqmtBR1Ensd73v8AkWM9rMrTaeY4JNcH/rVHBrnr4/AyuHxELYRsrnGdclrGcJKUZJ9sZRejXlOSsbHS21d1lnHzTfEmHC7Syy/ZbCWQel9qsppfwX1tvjadu7Fa/QX8dkHkI0/JycnN2tbt4mLlulfl51fKxUY04uV077nY3PaTbnLcvk4X4hO1c6qouya+Vu8IPySaMXgelTKLJKMrbKtfyrKpbur7G466EJbKZHfmmMWHrkt+anbZbPVqKWm9OWnFtylFeeSMjt3sRiMp6qVk4W126rrIarSa47rT719xnxyLAwmqE6kvKNc35f3IqWlGZTpvE06UfJJ9f1T7kdJYLE13QjZVONlclrGcGpRkuxprg0exBPQPtHZTi3l85a0YhTnVF/7O+C35bvdGUIy4d8V3k6I1vMcBLB1nSe3nT4o3PJs0jmGHVZKz3NcGvoVLDOM2w2Eh1mKvroh2OySWr56RXOT8iPXNMZDD0232PSFVcrJPujGLk/uOXNqM8tzDE2Yq9vWTe5BvVV1/kwj3cOfl1MrKMpeOm9urGO98/UYOkGfLLYKy1py3LmtxZP8AT0jZNKSgsdDVvROVd8Irs4ynWkl5WZXH7TZfh3WrsXRW7Y71e9YkpQb0UlLlu+XU50wGyGZ30q+rCXTqmtYtJLeWnOKfNMw16nF7k95OvWG5PXWDT4x0fLj2E4tG8NUlq06rdt62N/TwNZlpljaUNarRS1uS9qX1udaYPG03w6ym2u2D5TrnGcf3otoxuY7V5bh21bjsNFrnHrYSmv2Ity+wj/1PGFj4NmFmnulldT8qhW3p/wB6/rImzzDdVisTUkkoX2xS7oqb3V9TRH4XIoVcVUoObtC222+/gSuO0oq0MFSxMaavUvsbdlbxv2HUGFz3B2YZYyOIq8F8b8NKXVw8WTg9XZpp4ya4mG/0i5K5bnh0Ndd3V13KGvy3Dd08uuhAWW4HMMdWqaK78RVQ5ONcNXXU5Pek9Hot5t8+ZjsVh51TlXbFwnCTjOElo4vuaM+joxh5SlCVW7XMrXS6ePyIqvprilGM40Uo87lezfPbd9TrTCYiFsI2VyjOEoqUZwacZRa1jKLXBxa7S3zrOMNg63birq6a1w3pvTV892Mec5adi4kb+p7x8vBMbVOX4LD2RnBN67isjOdnHu1jr9L7yM9vc/szHG23yb6uMpQojrqoVp6LdXY3pq326kZhshlVxU6Ddowtd9e4msZpTGjgKeJUVrVL2jfZs39ifeThDpNyZy3fC9OOmrpvSXn1hwXnIx6dMTXdj6Lapxsrng4OM4NSjJOyzimuZrmSbJ5hjandhsPKdWrjvaqKbXNR15//AJMVmGFuosdF8ZQnU3F1z11hq3JpLkk22+HPU2LAZThsPiNajUu43Ti2m+HRY1DNc+xmMwmpiKWrGTTjJJrauu9yQ/U9w1x+Jlp7XDLj3azJ1IP9Tt79xf6vD+8JxNZ0if8A1sui3gbtohG2Wwtxl4nzJcGu9M5Fxa/CWLuss9NnXbOSs5984j56305Enoi/XqdUfqQunqWpR65fQ+MuxlmGurvpk4W1SU4SXeux98WuDXlOl9gtpq80wkb4aRtj4l9XbXaktfPFp6p9qfkZznPJL1g4Y9Lew8rZ1Scdda5w0S3/ANFl9sDtNbleLjfHV1T0hiK/jK9eenwo8Wn5Zdj0JbOMBDMKTlS2zhdLs3r8iAyDNqmWV1GtdU52b6L7pL6l70vwUc4xWn5W5Lj5YrX7jYfU8V/67ipae1w0Y6929Ynp9O79hrvS1j6sTmcr6Zqdc6KHGUXr+TLh5Gu4231OUF1uPl2qGHS80pWt/cizjLxyhX36sVbtRfy5Rnn142a15NNdTJfxmLrohK26cK64rWU5yUYxXlb4Gl4rpXyiEnFWW2pfl10ycX2PTe0bXl0+sjrpq2lni8bPCQl/q+Flu6dk7tPGm326cl3cTy2W6NMXj8JHFxtrqjapOqE1LWUU2lJ6cFFtcPo8hD4XJsPToRrYubjrbkvlxNhxukmLq4qWHwEFPU3t7d2x8659hMeze2mXZhJQw+IXWvj1M067GuL4Rl7bgny15Gws5KxFNuFvcG5VX4e32yekq7K5cJRfY09GmTJnG383s/VioPdxl78FenDduW8rJru8Rb6X6SRRmOQeSlB0XrRm0lfer7uxou5TpX5aFRYhKMqactmy6WxrrublnW2WWYOfV4jF1wsXBwip2zi/0o1KTj9KRXKNsctxam8Pi659XFynFqcJqMVrKW5OKk4rvSOYq4ysnFJSnZZJJJeNOc5PRLyycmvrZteM2DzjBVSxbpUI1w3pOu1SsjFrSWsVx005oza2juGopRnVtJ7r2s+pf3I6jpdjq0nKnQUoR32TbS6Wn9CbsNt1lFntcww607Z2KpceXG3TUz2GvhZGNlco2Qmk4zhJSjJPk1JcGjkRpdh0Dhs+9bdm8NidE5xw1cK4vtsnwhr5NXqYOaZCsNqeSk5OctVJklkmlEsX5R14qKhHWur7v/RtOfbSYHA6eF4multaqLblOS7Wq46ya8uhjsu29yjEWRqqxte/LRRjONlW83ySdsEnJ92upzbjcRZfbO2yUrLbZb0pPWUpSfBc+PkRl8VsbmddTungrVWo70nup6R04trnpoZ/2bw1KKVWrqye7cl3c/eRf2yxlWbdCinBfE3brWxdx0TitqcuqueHsxuHrui0pQnZGLTa1SblwT07NTJSshKtyUoyg4t7yacWvlLgckWTlNuUpOUnxcpNyb87fMk3H5drsjhlXVKcrMTC3dhCU3xslrLSKfYuZi4zR+FDyf6x+tJRezYr8+/5fMzMBpZUxSrXpL1ISkkm9tuZ7Hv4/IjXE+3n8ufpMn7oxzvBYfKMHG7F4aqSh4ysvqg4tylwalLgzn3TThy0PVYG6Ud6NF0otPdlGqxxfmko6M2bM8uhiqMacp6qT37Nuw03Js2ngcROrCGs5X2bdm3oR0J0pZXgswwlKuxuHw0t7rMLdZbXGFjcOKW9JKcHGS5PuZoGx2xFFWOw1mKzPL5Ku6udVVN8ZWW2wkpVxSk1+Wo8FrroZXpqpSyjKtI7u7OqCT4OKeFse75PafYR3sFQp5pgItJ/61XLTRPjW+sT08m6QmW0KvmU3CraPrbNVPdwfNc2LOcVQ9JwU6KlL1PW1mt/Fc9jpPMc+wWGmq8Ri8NRY476hddXXNxeqUlGck93VSWvkZXLs6weKk4YbFYe+UVrKNN1dkorvcYSbSIS9UH+N6//APn4f/xGLPf1PaXh+IfasMtPM7OP3IjXkkVgfOtZ3te1uzeTcdJZvM/MtRW1nHWvt2bdxNeZZnhsMlLEX00Rk91SuthXFvTXdTm0m9FyLbA7Q4DETVVGNwt1ktWq68RVOctFq9Ixk29EtTQfVFx/1PBv/wCq0+um1/4EcdFb0znL3/2tnd24e5Pn5GynCZNGvg3iNZppS2W4dJVj9JJ4bHxwmomm4+tfmkdJ4zE10wlZbONdcFrKc5KMUu9t8DSsV0q5TCTjGy63T8quqW4/M56NkedNm088VjJYKD0w+EluyXZZel48n5I66LyqXkLfZTozxeYYSOLVtVMbN51wmptyiuUnu8otoyMNk2Hp0FWxc3HW3JdO7mZi43SPF1cVLD4CCnqXu3t3bHw2X7yYtm9tsuzCShh8Quta16mxOux/JUuE/wBls2SByTiKrcLfKEta78Pa1qno42Vy5p9vFJ6nSnRtnzzHL6cRPTreNdunLrIPdk15Hpr9Jj5xk6wsY1actaD+XDrMvR7SKWOm6FeKjUjt2bmufZts0bIRP6o2K8HwL7evsjr3J16v7kSwRd6ov3jhPJjF/cXmJkrtjKduP0ZIaSq+XVepeKIPJA6G9sPAcR4JfPTC4iSSbfi0WvlPjyhLXR+ZPvNJynAyxN9WHg0pWzUIuXtU336HzmeBtw11lF0XCyqW7OL712rvXczomMo0sTF4ee9q/Suk5Fl+Jr4OccVTWxO3Q+jtR0X0tRTyXHPurjL/ALyBzW+TJOyTbVYjJMbgMTP8PXh9KJSa/C1pxSjq+c48vMRklyRF5DhamGhUpz3qWx8VZE3pPjaWNq0a1J7HBXXOnd7DqbZaUKsuwspuNcIYWuUpSaUYxValKTb4JLi9Skdrcrf/APscD/vVH9Zgdtruq2ds3Xp/qdMF5pdXH7mznmqG9KMfhSjH62ka7l2TrGqpUlJxtJ81+k23NdIZZa6VGEFK8Vvdrcx13CaklKLUk0mmnqmnxTTXNGJntVlie68wwSkuaeKo1XnW+X+V17mHpj8GmEfqgkck6c/OWMoyiOOlNOTjq25t97/kZWf5/PLYU5Rgpa997ta1vzOt8Lj6ba+uqtqsq4vrITjKvRc/Hi9OBi8y2uy3D+643Dx4vgrIzlw5+LDVmk7F4ZS2UxUee9Rjp/T+EmvtSIRWnLsMrL8hhiJ1Iym1qS1di3mDmulNXCU6Uo00/Kw1t72dB1bm+0GDwlULsTiK6q5pODlq3PVJrdjHxpcGuS7TGZdt9lGIsjVVjYOyT0ipQtrTb5JSsgo6+TUgezJc2x9bxsqcRiIKGiskuHV1p8K4/BST4JczXl9hm4fRmhOLTq3kt+q1ZPp5/AjcTppiac1JUdWD3a17tcVtS8TrDOs5wuCr6zE310wfBOb4yfdGK4zfkRhMJ0iZNbJQhjq95vRb8Lq4/v2QUV9ZBleX5tm34ZV34pVRVSm9N2MYpeJHXhr36d5r9sHGUoSTUoylGSktHGUW0012NNNDD6M0JJxlUvNc0bWXXsb8D3FaaYmLU4UbU3ucr3fG25eJ1zNpxbWjTi9NO5r+RyTiY7tk1po1OSa7tJMn/oTxdluTw6yTk6p3VRber3It7kfMk0l5EiBM093v+fu/vJF3Ryi6FetSb5LS67XRY0wxKxOGw1ZK2spO3C+qTb0dbRYHLclwbxWIjVv9c4w0lKyWt9jbjCCcmtXz004mcwXSRk1s1COMjFy4J2Qtrjq++c4qMfpZA2QbN47MFKWFpnbGvSLk34sXzUE5fKb0XeWWb5ZfhLHTia5VWJauMu59se+PlK55Bha1WadR67bdk1svt3FFPSnHYehTcaP6tJK7Td7bN90kdZVzUknFpppNNPVNPimmuaLfM8wpw1crsRbCquC1lOclFLyLXm/IuLIl6ANop71mW2S1rUHdhtXxho11tS/R8ZSS7NJ/RqnSztLPMMbZBS/1bCzlXVHscovdssf6W8mvMvKQlLIaksZLDt7I7dbo5tnSbLX0qpQwEcTFXlJ2Ub/tLfttuXUSlf0sZTGTipXzS4b8aXuvzbzT0+gz+zW1uAzDhhb1OxLedUtYWpd+5LjJcVxWq8pDmT9FmMxODhilZVW7K+trpkpqTg03BSa4JtaNd2qNJwt92FvjZW3VfRY3F9sbINpp/U012pskvQWDxEZRw9R60d991+7dfYQr0ozHCyhPFU0oT3W2O3e+bidX43G00R37ra6ofCsnGEfrk0YijbHLLb4YarGU2XWNquNbc4ycYuTXWQTgnonzZofSbjIZns7hcw0W8raptfAscpYe2KfcpuS+hEP4bETqmrKpyrsjruzhJxnFuLi92S4p6Nrh3mJl2QRxFKUpSakm425rozs30snhK0YQgpRlGM07u7T+VzqXHbRYCmxVW4zDwt1X4OV1amteScG9U2X2MxldNUrrZxhVCO9KyTSiori22+w5UyNKWLw+8+DvqctXx4zjzb4t6/eSL6oHNLXiMPg02qIVK5xXBTsbcVJ/C3UuHnZ5W0f1cRToKd9ZNt23WKqGlsp4WriJU7KDUYrpfF8Ow2fG9L2Wws3a4X2wT0dkYKMdOHjRU3vNedLkSFgMTC6uFtclKFkYzjJcU4yWqZzLsFsy81xfgytVMVBzlLTelurRaQjqt58V2nQmxGQetuEjhevniIwk3CU4qLinx3Ek34qev1lrOsDhcLaFKT11vTvufPe1uwyNGs0x2OcqlaK8m9zVlZrerXu10mdABr5twAAAAAAAAAAAAAAAAAAAAAAAAAAAAAAAAAAAAAAAAAAAAAAAAAAAAAAAAAAAAAAAAAAAAAAAAAAAAAAAAAAAAAABHXT9+K4/rFX3sgInf1Qc9MtqXZLFQT+iM5fekQPN8H5mdC0adsG3/wAmcj0zV8x/hivE+t7hpq39fLzctC4y3A34qxVYemy6yWiUaouTWvBOTXCEf0nolzZ1RhcLRZVXLqqmpQjKOsItcUnw1XlLnDYauv2lcIavjuxUfuI6WlTSajT29f8AYlaWg2u4udW66ttn2mldH+yDyrAX7+ksXfVKVjXKDUHu1Rfak+3tZz7iNd6evttZa9+urf3nXrWupzz0qbGXYDEW4iquU8HbNzUorXqpSe9KM9OS110fIp0ezJSxFTyr9afO/AuaWZO6WEpeQXqU7ppb9vP37yZuj6yl5XgnTu7qw9alu6aKyMUrNdO3fUiDumGymWcYl06NJVqxx0061VpT5dvf5dTXsvzjF4eMoYfE30wlxlGq2cItvm9ItcfLzPnKcuvxd0acPXO22cuUU21r+XN/kx72+8lMBlCwdedeU1az6N7vtIPNM/8ASGFp4WFO0k1u23aVrJEu+p9o38Fj4WLWud0YaPlKLr0mtO7iaF0m7IvKsUlFueGv350S7YqLjvVT8sd6Oj7U0TBlmUYjJsmcMHCF+KrhK2cZa6WWPjZppxeiXDv3fKQhtdtTi8znCeKlHSpS6uFcHCEG9N56NtuXipczCyqdSvjqlam15Nv1lfb0OxI57So4XLqWHrJ+VSvF22K7u039Dc+g/auyu+OW2y3qbVLwfV8YWRTk4L9FpSfk0K+qJX+t4L9Xt/vIlr0J7MX242rHzhKGHo3pQnJadZZKLgtzXmtJS4l16or35gv1a7+9iVWpLOF5O2561t2tZ3PG8Q9H5eWvyo6t9+rdfW/YWfQB+NLP1WfpQMn6o6S67Ll3V4pv6Xh9PuMN0Ct+vHk8Dv4ft06Ge9UZhrN7A3KLdajfXKSXCMpOqUdX2aqMvqFayzmF/dXgzzDJy0dmkv234pmG6A5L10mnzeGnonzek4a6d/YTvakoy5Lg/J2HJODxVlM42VWTqsg/FnXKUJLVaPRxa04Nkq9B2LxeJxWLtxF+IurWG3dbbLJw33OGm7vNx3lFPl3st6QZY5SlitZJWXq89y7opncYQjgtRttyetzJWuRdmvvi/wCeu/vJE47B5b4XsvHDLndTioR87xF7X2kH5r74v+fu/vJHQPQpr6y4b5V+n8e0vaQyccLSkt6lF/IxtFIKeOrQe6UZLsuc74qmVcp12RcJwlKE4y/JlF6NcScMJ0iYdZH1znF4uutYZ0by6x3bu4pqOuu4142vLn3GK6cNj3xzPDx1XBYuMV2cErtF9T+siFf54f5/yzLUKGbUIVJO2q9q6eePaYMqmJyHE1aUVfXVk3w5pdm0+9JTnycpzlooxWrlKT1SSXa5PkSR0p5TZgsqyfDz5176s48FdOEpyS79G5LXyF10I7HO2xZliYfg62/BYyXtrPjtH+THkvLx7CROkrZv1zwM6Y6K2DVlDfLfj2PyNaowcwzenHGU6a5MH6z6Xs+RJZTo/Vll1aq1aVSPqrnsnf8A+XMc+7K4rH13SWXdb1862mqY703WmpPRactUjYMXs3tJj0o304q2Keq6+2qEYt9ulk0/qRq8o4rL8Sn+EwuJplqnymny1WvCUWtfI09HrxNgv6Ss4nX1fhSWq0c41wjZppx8bTg/KkvJoS+Jp1pyU8PGk0/2pLb3rmt0kBg6mHhTdLFyqq37EXsfWuZ9hs3R70dZjh8ww+IvjTCqhylNxt3pN7koxjGKXF6ta6vlqTWiFegPMsZLFYmuXW3Ye5O222blJQxC00e/LnKUeD7fFgTUjSs+lVeJ1arTaS2x2K3zOlaLU6EcJr0YyipN31nd3X0NY6VE/WfH7vxEtfk/l/8ADqc1USjvwc1rBTi5LvhqnJefd1OtMywsb6bKZrehbCVcl+jKLi/vOYNrtnr8txE6LovdTbqs08WyH5Mk/hac0TGi+IhqTot7W7rpVrfI13TfCVPKU8SleKVn0O91frOnMpupnRVOmUJVSri4Sg04OOnDda4aaHOnSvbRPNsVKjdcU4qTjpo7Yrx3ryfYvoZgMJmOKrj1VWJxNdctV1VV90K25vjrXCW622+7jqfOYYG7Dz6u6uVU92MtyfCSjJap+TgSOWZOsFiHN1L3TSW5tcWRGdaQvMMLGnGk4qLV5c17Wstmwmn1O7//AG/FL/6uX9zSRLtr+Msb+s2feSj6nWz/AFfHR+DdXL96D4fYRZthZvZhjJaaa4mz7JNf4FGWx1cyr9n0LubO+TYXrfyuTP0BxXrVJpLV4q3V9r0jDTXzEZdMVe5nGJXeq5fvQRJ/QF+KX+tXfdAjLplmnnOJa14Rqi/OodhiZY36Vq3/AOXijOzpL0FQuvc8GbJ0IpvAZ0o+2cIafwbiKIclw7Fw8pMnqdIp1ZkmuDnh00/LC3U0vpK2Ruy7E2TUW8JbOU6rEtYx1errm/yWtfpRn4PFQhmFelLfJxa6bR2r5kXmOCqVMqw1eO1RU0+i8tj+RNHRZiaLMqwfUOOkKYxsitNY2r3TeS5SctX9JE/TtiKbM0SqcXKFEIXOPxm9N6NrnJRcUaTg8fiKFLqcRfSpe36m6yre+VuSW99JTEYS6EIXWQsULnJ12T1/CuOm+03xlzXF94wWSrD4t1nO972XO7+NhmOkTxmBjhlTtq6t5cytsXVckj1O3v3F/q8P7wnEgf1PtiWYXrtlh+H0T1J3Rq+kStjZdKXgbvofK+XR6HJfMM5IzOzevuku26x/8cjrS6WkZPuT+45HxT/CWfOTf1ybJTRJetUfRH6kLp43q0UuMvoTf0L4KvE5Lbh7oRnVO+6MovtT0+ppkVbc7NW5Xi5Yeacq5azos04WVf1RfBrzPk0Sx6n2T9brV2LES0+lLU2bpA2XqzTCSpkkrY6zot04ws05a9sHya/kizTzN4LMKik/UlLb0dP5l6rkqzHKaUo+0jD1Xx6H9DmIlz1OXtsx+Th/vtIqzDCWYe2ym6LhZXJwnF9jX3rykq+px9vmHmw/32mw57JSwEmv+L+aNU0YhKOZ04yVmtZdtmmRntGpeG4ve118Jv17eHWy0+zQ2PJMRtHdh6oYPw6WGjFQq6pbte7W9xJTa04Naaa9jMz0z7HXVYmzH0VynRd4926m3VYkk20uO4+HFcuJqGzm1+YZfHq8LiHGvVvqpRU69XzcVLjHv4NLU8p1Fi8JCVFQm0krT22a39TPK1F4HHVIYh1IJt7aextN3W3ZdGXXR3nl8pWW4dQnJ70pX4inem3zfiSfHzl/thspicvyPDxv3HJY+V1irblGtW1dVBbzXF6xX75rW0G1uY45xV+JsaUouFdf4OKnF6xkow9tNS0ab10aWhPeUYeWaZRVXmNLhO+jdug1uy3k92NqX5Dluxml2b2nYR2YYrE4V0pV3BxUtsYrdbr37G+omMqwODxyrQw6qazhZSm99+OzZt7zn3YzMKsLmGExNy1qquUp6LXSLUo7yS5uLlvafok+bR7ZZZHA3WLGYe1WVSUK67YTnNzi0oquL3k+PHVcNHqRHtF0a5hRZLwatYynee5Opxc9O6cW+DXnLXB9H2YuNll9PglVUJTnO5xT0jFtKKi25a6afSXsfRwONlGs6qVua629Ft67jGyyvmOWwqUI0L619rTstlr33fM1N9vYSv0iSctm8qcfa6YdS+irRf8AEiJkdD0bPeH7O4fCN7s5YWqdcnyjYlvwb8nFF7O6sKMqFR7lP5W2/QsaOYeeIhiacN8qezrvu7SF+j26mGaYGeI3epjet5y9rGTjJVuTfJKxwer4LQ6bxFlca3KcoqtRbk3pu7unFtvhpocoZrl92FunRfB121txcWtPJqn2xenNFxhsVjcTuYWu7F3RnpGGG666db05RVTlupfQU5rlUcdKNaNRJJK/OrcSvI89llkZ0JUnKTezjfdZrnPDN5VyxF8qlpW7bHBdm65PTTyaHRPRT+JMD8zL+8mc3X1SrlKEluyg3GUe6S4NfWdFdDs3LJsMu5WR+qb/AJljSaNsLTS5pLwZlaGybxtW62uD2dqZz1mU9666XLW2x/XJnRfRPuvJsDyelWj5cHvyOd85ws6MTfTZFxsrtnGUXwftm19DR6YHOMZTB00YrE1wk/c6rbIJt89FB835DNzHLnjsPBRklazu+FiNyjNo5bi6spwcr3TXPe5MXqiveGF/XYf+HxBGXRj+OMB88/7qw3PpNjYtncmVzm7XPDOfWaue88He5b7lx3teepo/R7r664D9Yjx8rUjEyuNsuqR3211fsM3O6mvm1OdrX8m7dfMb76ofKJ7+Gx8YtwUPBrZJe10lKdLfdHWdi1fa495p3Rbn9eXZjXba9KbU6LZN8IRk042P9FSS17lJvsOic5y6vF0W4e6KlXbBxkvOua7n2nMe2GQW5birMNam0nrXN8rK37WS8vY/KY+R4qnisM8HU32dulf2M3SfBVcDjY5hSV02m+iS49DNy6ctp6sXfVg8PKNleGlvzshJSjK2cdFGMk9JKMW0/K9OxmP6EsnnfmldyT6vCRnZOTXDfnCVdcNfhPflL9g03LsHZiLa6KYudlslGMUuLb0Wr8nezpfYHZuvK8JCiOjsl499nbOx83r3LkvMXcyq0suwXm1PbKSa7HvfbzGPk2HrZxmPnlRWjFp9F1yYo5y2p1WPx28nveG4vXXveIs+teY2DJLtorcPXDB+HPDRju1ulJV7sXu6Kb0T49nkZnemjY26vE2ZhRW50XaSvUeLqsSUXNpfkSSXHseveabs5tbmGAi4YXEONbbl1Uoqder7UpcYvzNEhSqrF4WEqKhJq2ye1J229TIqtQeAxtSFd1IRd/WhsbTd1t51xMvHo7zy+UrLcPuzm95yuvq3pyfb4k5PXz6EvdE2zt+WYF04lw62d07XGEt+MU0lFb2i46RT+kgvPdrsyxzir8TY0mnGur8HDeTTT3IcZS1Sa11004HRGweMxF+X4a3FVyqvlWt+MuDenBT0fFbySfHvILPp4uNCMazhZvkxW6242fRWGBnipTw6qXS5Utzvv7e0zhFfqjJ/6ng49rxTl+7TYtP+P7CVCJPVHz0pwEex3XP6VXFL7JMh8kV8bT634M2PSeVstqvoX9SIw2Lnu5lgWl/8TVp9MtP8SY+mPYzw2nwzDQ1xdEXvRS93p5yhw52R01j9K7eEKbNT3cdgn2+F4b7boL7mdX+QntIcTPDYqnVg7NJ+O41PRPBU8Zgq9Cpucl2O29dJyA/L9vf/ADPqPNedfeSV00bHeC2vH4eH+r3S/DxS4VWyfGXkjLj9PnI0jzXnRsmExsMVR8rDhtXB8DT8fl9TBYl0prc1Z8zV96OgukZf/wCOT/V8Pr9dRAGGmozhJ8ozg39EkzpXOcseMyWWGj7azBw3PLOMIzgvpcUjmrEUzrnKuyMoWQe7OMlo4yXNNd/8yD0akpU6lPn1n12aNn0xpShVpVUtmou9HWWFxEHh4WuUVDqVNybSiouCerb4JadpyVrz87+9mfyi/NcbBYHDWYq2nRRdMZy6uMO6b7IeRs19/wCP1cXqZeTZb5nOonJSbtsW9Lba/WR+kOcekKdFqm4qN1d872Xt1WJ+2F4bMy4Jf6pitfPuTIA/Jfm/wJ62Iv02Xulp7TB4zh37kLH/AIEC9n0MtZF7XEfH+ZkaTewwv7v8jqjY5L1uwnBaeD19n6COWdzd1jrrutx179Hpr9h1Psf+LsJ+rV+gjlauzeSk9NZeM9O+XF/eYmjT/W1+teMjO0zt5HDL/jLwidJ9D8EsnwjSS1jJvTtbk22QJtlDdzLHpfnmJf71s5f4k+dEP4mwXzb9JkA7Xzcsxx7f57il+7fOK+xDItuOr9viNJ1/9MwtlzL+lE0dA/4ol8/eQXmnu9/z1395InLoJ/FEn/29/wBhBGIs3pzlrrvTlLXv1k3qZWUL/rcR8S8WYWfv/wCnYNL3H4I6B6DbqXlFUa3HfhO1XRTW+pu2b1mua1juteTQ031QuIoliMLCDg74Vz6zdacowbW7GenFNvitfKRvhr8ThtLKrL8Ork9LKrLaetjF6NKdbW/o1oW9s52ScpSnZZNrVybnOUn5XrKTK8Nkqp4x4nXurt26XzN9BaxekTq5fHBeTs7RV+hc6Vuc23oeUnm9DinwqxTl5vB5pa/tOJqmMUussUvbb81LX4W897XTnxJr6Edj7cJGzHYqDhbfBQprftoVNqUpTXZKTUeHNKPlNM6W9jrsHircVVCUsJfJ2OUU31U5PWanpxSbbevlYoZnRlmE4pqzUUnxcb3S7/kMVkuIhldOo4vZOUmudKVkn/8AHsueWAu2mxFVao8PdO5HqnHSuuUGluaTlomtNO08qujXO7NZzw8K5Sk5Prb6t6Tb1cvElLm32mO2d2zzLAQ6rD4h9Utd2qyMbIRb4tw14xWv5KenF8OJ5ZptXmWMurnZibZ2QnGdMIcIxsi9YuNUF40tfO+wvuljITl5JUoR33ttfC+4xVXwFWEfLOtOastW+xcbPaSPtTkluX7J+C3uLthdXKe43KCduPViim1x0Ulr5dSJsmpjZicNXPjCzEUVzXfGdsIyX1Nk29KuKts2cU76nVdb4FK2t867OtrlKP1pkKZFPdxeEk+UcVhm/MroP/AxsjqTlhaspPa5zbtxstpm6SUoU8bQhBeqqdNK++13sfYdMYfZTLobrjgsOnGSlF9XHhJcpLymB6VtjFmeH62nRYvDxk6+xWx5uqWvLXs8pvBE3SttnmuX4l4eqNVdNsNabtxym1+Vo291TT8jNSy3ziriI+Tl6y2rWfeb9nCweHwclVh6ktj1Er35n/ciTKMyuwt0L6Juu2t6xfH6YyT568mmdO7E53HMMFTilwlZHSyK5Rsi3Gcfokmcv5fg7sRYqqYSttk9IxinJt97fd5Tpno7yWWX5dh8NPTrIxcrNOSnNuckn2pNmw6VRpakN2vft1bfnuNT0GlX8pUSv5O3Zrc1uzebCADSjpQAAAAAAAAAAAAAAAAAAAAAAAAAAAAAAAAAAAAAAAAAAAAAAAAAAAAAAAAAAAAAAAAAAAAAAAAAAAAAAAAAAAAAABZ5nltGJgq8RVC6Ce8o2RUkn36Pt4sxVmxWVS9tl+Ffnph/I2EFyFWcVaLaXWyzPDUpu8opvpSZ51VKMYxikoxSjFJcEktEl9CPtIqC2XUrHylwPm2pSTjJKUWtHGSTT86Z6ACy3GtXbC5TOTlLAYfefFvcS1ffojKZTk2FwkdzDYeqmPdXCMdfPpzMiC7KvUkrSk2ulssQwlGEtaMIp8UkfDia3DYTKldK/wADqdk5OT3lvRTb11jB+LHj3I2cHlOrOnfUk1ffZ2ue1cNSq214p23XSdjzqqUUoxiopLRJJJJeRLkY7Odn8HjJQeKw1N7gmoOyEZ7qfFparvRlQUxlKLum78SudKE46skmuD3GHynZnAYSx24bCUUWbrjv1VxjJxeja1XZwRf47B13wdd1cbK5LSUZpSi/OmXIPXUk3rNu/G4jRpxjqqKS4JbO41lbB5Qmn4BhuH/Zr7jO4XCV1QVdVca4JaKMYqMdNNNNF5C5B7OtOfKk31u5RSwtKlthGK6kka7bsTlU5SnLL8LKUm5Sbqg25Pi2+HPUy+W4CrDVxporhTVHXdrglGMdW29Eu9tl2DyVWclaTbXSz2nh6VN60IpPikkeV1SlFxklKMlpJNJpp800+ZgPYPlOuvrdheevuMO/XuNkAhUnDktrqYqYelU5cU7cVc8qKI1xUYRUYxWkYpaJJdiS4I+2j6BQXUktiMVnOz+Dxq0xWHqu05OcU2vM+a5GIr6PMnTT8Cq4d+sl9Kb0ZtgL8MVWgtWM5JcE3YxamAw9SWtOnFvi4q5a4HA1UQVdNcK4R5RhFRS+hFxofQLLbbuzJjFRVlsXQUZZZrlWHxcHXiaa7oPju2RUuPeteTL4CMnF3TsxOEZq0ldcHuNbyzYjK8NZG6rB1Rsi9Yya3nF98d7ky6zTZbL8VZ1uIwdF1jSTnZXGUmlyWrXIzQLrxFVy1nJ343dzHjgcPGOooRSve1la/UY7J8lwuDjKGForojNpyVcYxUny1aXNlhidjcrsnKyzA4aU5tylKVUG5N823pxZsAKVWmndN3e93ZXLC0pRUXGNluVlZFnlWW0YWvqcPTCmpNtQriox1lzei7SwzPZXL8TY7cRgsPbbLROc64yk0uWraM2DxVJp6ybvxuVSoU5RUXFNLmsrdxjcnyTC4OMo4XD1UKbTmqoqKk1yb05839ZeYjDwsi4zhGcXzjJKSf0PgewPHKTd23cqjShGOqkkuHN3GvQ2LyqMlNZfhVJPXXqYap89eRe5ps/gsUq44jC03KpPq1OuMlDe03lHXlrur6jKAr8tUbvrPZ0stLCUUmlCNnv2Iw+VbNYHCWdbhsJRTY1uuddcYy3XzWq7DLJH0CiUnJ3k7lynShTVoJJdGw+XHXmYV7JZa9W8Dh9W9W3VDXjzfIzgPY1JR5La6jypRhU5cU+tXLLLctpw0XDD1Qqg3q4wiorXv0XaXaR9Apk3J3e0rjCMVaKskYnMNnsFiJuy7C0WWPg5zri5NLlq3zPbK8nw2FcvB6Kqd/Tf6uCjvaa6a6c+b+syAKnUm46t3bhd2LaoU1LWUVfjZXPicE000mnzT4p+c1zHbB5TdN2TwVO9Jttxju6t821HmzZge0606bvCTXU7HlbDUqytUjGXWk/E1/Ktjstwst+jB0xmuU3FSkvM5cTLY9yjVa4RcpKue7Fc3JJ7qX06F0z5kJ1pzlrSbfWxDDU6cXGnFR6lY5cqzrNMDdPSzFYayU5TnXJTit5tt6wmtO0+c42rzDFx3MRibbK+2HKL+VGPP6TqKymM1pKMZLukk/vLSGTYRPeWFw6aeqapr1179d02WGkFHlSoR1uKa/I0ueiGIs4RxMtV8zT/AP6sc67C7F4vM7oJVzrwqkpXYiScY7ifGNTfuljWqWmqXb2a9KYelQjGEElGEVGKXJRS0S+pHpGOnI+kROZ5pUxs05KyW5L/ADebBkmR0ssg1F60pb29nUkuZIxGd7O4PG6eFYeu1x9rKUVvR80ua+s8sk2WwGCk54XC1VT0030tZadqUnxSM4DB8vU1dTWduF3buJJ4Oi5+U1I63vWV+/ea9fsZldkpTngMNKc5OUpOqDcpN6tt6c9TL5dgasNXGmiqFVUdd2EEoxjrxeiRdAplVnJWbb62yunh6VN3hFJ8UkmYbOdmMDjJKeJwtN00tFOcIuWndvaa6HxlmyeXYae/Rg6K58t5Vx3tPPoZwFSr1NXV1nbhdlLwlHX19SN+NlcsM3yjD4utV4miu+tSUlCyKlFSSaUkn26N/WywwWyGW02QtqwOHrsg9YThVBSi+9NLgzPA8jVnFaqbS6z2WGpSlrSim+Nlc+dDHZxkWExm74Thqr9zjHrYRnuvya8jJgojJxd4uz4ouTpxmrSV1wZhsp2ZwGEm7MNg6KZ6ab9dcYy086Rl0j6B7Obm7yd+s8p0oU1aCSXBKx8ThqtGk0+afFM1vG7CZVdNzswVO9J6ycVu6vvajpqzZwVU61SnthJrqdiithqVZWqRUutJmv5TsbluFkp0YOmM1ym4qUl5pS4mfgioFSrOo7zbb6Xcqo0KdJWpxUVwSsCxzXKsPit1Yiiu5QbcVZFS3W1o2teRfAojJxd1sK5wUlaSuukwlWyuXwlGUcFh4yi1KMlVBNSi9U1w56maSKg9lOUuU2+spp0YU+SkupWPDF4aFsJV2QjOE1pKMknFruafMxPsRy38yw38KH8jOg9jUnFWi2uplNShTqO8op9aTPiEEkopJJJJJcklwSRis12ZwGKn1mIwlF00tN6yuMpaedozAPIzlF3i2n0FVSlCorSSa4NXLLLcrow0Orw9NdMPg1wUV9iMTLYjKW25ZfhW222+phq2+Lb4eU2MFSrTTupO737XtKJYWlJJOKaW7YthY4bK8PVR4NXTCFDjKLqjFKG7JNSju8tGm/rMT7Bsp/8Al2E/gw/kbIBGtON7Se3ftYnhaM7a0Yu266Ww8qKI1xjCEVGEUoxiuCSXBJLuMO9kMt/McN/Ch/IzoPI1JR5Lav0lU6FOeyUU7brq9i2wWErprjXVCNdceEYRSUYryJGJxWx2WWznbZgcNOycnKcpVQcpSfNt6cWZ8CNWcXdNq+/aeTw9OaSlFNLddXsWWWZZRha+pw9NdNWsnuVxUY6y5vRdrMdHZDLV/wDA4b+FD+RngeqrNO6b279u8Sw1KSScVs3bFsMXicgwdlMcPPDUyoh7Wp1xcI+Zdh4Zdspl2HmrKMFhq5rgpxqgpfQ9DNgeWna2s+9nnmtK99WN+NkfCXM+bqlNOMoqUWtGmk012ppnqC2theaTVmatiuj/ACiyTnLBVbzer3VupvtekeGpe5Rsnl+Ee9h8JTXP4SinL958TOAvvFVpR1XOTXBt2MSOX4aMtaNOKfHVRZ5nl1OKrdOIqhdU2m4WRUotxaa4PhwaMTTsTlUJRnHAYWMoyUoyVUE4tcU09OD1NiBRGrOKtFtLoZdqYalUetOKb4tJnxFGN2i2fwmYQjXi6VbGEt6HFxlF8nuyT1RlQUwnKD1otprnRXUpQqRcJpNPentRislyDCYNNYbDVU683GKUn55c3zMoioE5ym7yd30ntOlGnHVgkkuZbAACkrAAAAAAAAAAAAAAAAAAAAAAAAAAAAAAAAAAAAAAAAAAAAAAAAAAAAAAAAAAAAAAAAAAAAAAAAAAAAAAAAAAAAAAAAAAAAAAAAAAAAAAAAAAAAAAAAAAAAAAAAAAAAAAAAAAAAAAAAAAAAAAAAAAAAAAAAAAAAAAADKaFQAUSKgAAAAAAAAAAAAAAAAAAAAAAAAAAAAAAAAAAAAAAAAAAagAAAAAAAAAAAAAAAAAAAAAAAAAAAAAAAAAAAAAAAAAAAAAAAAAAAAAAAAAAAAAAAAAAAAAAAAAAAAAAAAAAAAAAAAAAAAAAAAAAAAAAAAAAAAAAAAAAAAAAAAAAAAAAAAAAAAAAAAAAAAAAAAAAAAAAAAAAAAAAAAAAAAAAAAAAAAAAAAAAAAAAAAAAAAAAAAAAAAAAAAAAAAAAAAAAAAAAAAAAAAAAAAAAAAAAAApqVPnQArqUcjG7QZ7hMvplfjL66KornN6OT+DCPOUvIjnvpJ6csTid/D5UpYWh6p4maXX2Lt3I8qvO9WeOSRL5XkmKzCdqUdnPJ7Irt+iJh6Q+kzLcmi42z6/FNa14Olxdsu5zbelUNe2X0J8h0Q7eQz7ByudcaMRTbKu/Dxm5qCcnKmUZtJzjKvTxml40Z8Ecc3WynKU5ylOcm5SnJuUpSfOUpN6tm39D+18snzKu5yfg92lOJj2dXJrSfnjLR/WW1UuzeMZoPTpYGTptyqrbfcnbfFLg++9tp2amVPLDWxnGM4tSjKKlGS4pqS1TXk0PUunMAAAAAAAAAAAAAAAAAAAAAAAAAAAAAAAAAAAAAAAAAAAAAAAAAAAAAAAAAAAAAAAAAAAAAAAAAAAAAAAAAAAAAAAAAAAAAAAAAAAAAAAAAAAAAAAAAAAAAAAAAAAAAAAAAAAAAAAAAAAAAAAAAAAAAAAAAAAAAAAAAAAAAAAAAAAAAAAAAAAAAAAAAAAAAAAAAAAAAAAAAAAAAAAAAAAAAAAAAAAAAAAAAAU1KmI2rzyrLsJbirdWq14sE9JWTfCEI69rlpx7OL7AV06cqklCCu3sS6WZOy1RTlJqMVxbb0SXlbIg6S+nHCYJyw2WRhjsUtYytbfglL8sovevnxXCOi4PWSa0cPdI/ShmWbynVKTwmF1a8GqbW9x5XT4Ob8nLzmh6FmVTgdLyTQZJqpjdvPqLd2v6LvMttPtHjczud+NxE75vXRSelcF8GuteLCPmMSAWr3OiUaMKUVCmlGK3JKyBVFAC6jpr1M+2/hmEllt89cRg460uT42YZvSPHtlBvdfk3e8mRNnC+yGf3ZZjsPjqPb0TTcNdFbW+FtUvJKGq48no+w7Z2czanHYWjGYeW9TiK42QfkkuMWuySesWuxxZkU5XRxjTHJ/M8T5amvUqX7Jc6+qMigECs08AAAAAAAAAAAAAAAAAAAAAAAAAAAAAAAAAAAAAAAAAAAAAAAAAAAAAAAAAAAAAAAAAAAAAAAAAAAAAAAAAAAAAAAAAAAAAAAAAAAAAAAAAAAAAAAAAAAAAAAAAAAAAAAAAAAAAAAAAAAAAAAAAAAAAAAAAAAAAAAAAAAAAAAAAAAAAAAAAAAAAAAAAAAAAAAAAAAAAAAAAAAAAAAAAAAAAAAAAAAFNSpQApqQP017TeF4vwWuf+r4Nve0fizxHFTm3+gtYLz2d5JvShtIsuwUpRf4e7WuhdqbXjT80Vx+o5kznENtQ11cvGm+bbeumvfx4litPmN80Lyfy1Tzma2R2Rvx532eJhNq8BuTVsfa2cJdyn3/AEowRJucbO304ahYqLUcVUpwfbH4Kl3TS3X9JG+KplXOUJLSUW0/Lp2+ZotI6fhMRCrH1WpK+xo8gAemWAAAETn6l/bR1W2ZPfP8Ha3bhN5+1tfutSfdLTeS70+1sgw98Bi7KLa76ZONtU42VyXOM4vVNfUexlZkXnOWwzDCyoy32vF8JLd/nA74iVNX6Mdqq84y6nFw0U3HcvhrxruhwnF/TxXemmbQZRwKtRlRm6c1ZxbTXSgAAWgAAAAAAAAAAAAAAAAAAAAAAAAAAAAAAAAAAAAAAAAAAAAAAAAAAAAAAAAAAAAAAAAAAAAAAAAAAAAAAAAAAAAAAAAAAAAAAAAAAAAAAAAAAAAAAAAAAAAAAAAAAAAAAAAAAAAAAAAAAAAAAAAAAAAAAAAAAAAAAAAAAAAAAAAAAAAAAAAAAAAAAAAAAAAAAAAAAAAAAAAAAAAAAAAAAAAAAAAeds1FOTeiSbb7kuLZ6EbdOO0vg2GWCqlpdil+Ea5ww6ekvpm/F8yn5DyTsrmXgMHPF140Yb5PuXO+xEYdJ+0/h+LsuTbw9WtWGj3xT4z/AGnx82hjuirZx5ljt+yOuHw7Vtza4Tlr+Cq489Wm35IvvRrmNlK6yNVacm5KEYr8qcnokvpeh0T0f7PRy3BV0cHbL8JfJc5WSScvOkkoryJGLBa8rs6xm2IhlOXxoUtkpLVXFLnfW/Fnrtnkax2ElSklZBb9L09rNLgl3Jrh9JzPtllj427u7OpuFq00lpFtJtd8X9j8h1oiJOmDZ3q7fC4RXVX+JckuCt003u7SUeflXbvF2rHnRBaK5o6NXyEnsltj18O3xOfAXmb4PqLXDs5wffH+a/wLMtXOnxaaugAAegaAA9JK9T9tp615lHD2yawePlCqzWTUKr9dKbtOSTb3JPulDXhA60T7TgE626AttPXXLY1Wy1xeDUar23xsjp+Ct17W4rj5V5S9TlzHMNOsm1WsbTW/ZPr5n9H2ElApEqXTm4AAAAAAAAAAAAAAAAAAAAAAAAAAAAAAAAAAAAAAAAAAAAAAAAAAAAAAAAAAAAAAAAAAAAAAAAAAAAAAAAAAAAAAAAAAAAAAAAAAAAAAAAAAAAAAAAAAAAAAAAAAAAAAAAAAAAAAAAAAAAAAAAAAAAAAAAAAAAAAAAAAAAAAAAAAAAAAAAAAAAAAAAAAAAAAAAAAAAAAAAAAAAAAAAAAAAAKMqUYBaZtjq8NRbfa1GFUHOT8i7F5X/icuba59PF4i/FWPx7peJH4EF4sEvJGP+eJJXTntPvSWXVSW7DSzEtP8rnCt+VLST88e8h7LsFbj8XVh6U3K2e5DujFcZTfclFOT8iMatK71UdQ0OyqOHovF1tl1dPhBbfn4G89B+zPXXSx9sda6W40p/lW6aSmvIk/tJsLDZ/LK8HhqsNUtIVQUU+2T5uT8rerL5F+ENWNjWs4zGWOxMqr3borglu795Uss7y+vFYe2ixaxsi0+9PnGS8qaTXmRelNCq1yNjNwaknZraus5f28yKyt20yX4bDt6fpR5vTyNaP6DQTpzpd2f6ytY2uLc6vFtSXF19kuHwX9jOeNpcD1Nu9Ffg7NZR/Rfav8V5/IYjWq7HX8izJYugpc+6XX/feYoAAnwAAeA2nos2rnk+ZU4pN9TJqrExX5VEmt5+eL0l9DNWDPU7FjFYaGJpSo1FdSTTXWd84PEQurhbXJThZGM4ST1TjJapr6D2IO9TBtor6Z5RfNdbh4uzCuT4zw+qUoLXm65Nfszj3MnAyk7o+f80y+eBxMqE/2XsfFczPpAIAwAAAAAAAAAAAAAAAAAAAAAAAAAAAAAAAAAAAAAAAAAAAAAAAAAAAAAAAAAAAAAAAAAAAAAAAAAAAAAAAAAAAAAAAAAAAAAAAAAAAAAAAAAAAAAAAAAAAAAAAAAAAAAAAAAAAAAAAAAAAAAAAAAAAAAAAAAAAAAAAAAAAAAAAAAAAAAAAAAAAAAAAAAAAAAAAAAAAAAAAAAAAAAAAAGCjABhNtc9hl2DtxMtHJLcqh8ZdPVQj5ubfki32GZZAHTNtOsXinVCX+r4NuK48J28pz8untV/6lNSWqrkxkOWPH4qNP9lbZdXDt3Ef5/mE7JTlOTlbdKVlknzbk25PyJvku4lHoM2Z6qqWYWx0svTjQmuMKdVrJeWbSevdFEc7D5HPNMdCtp9Wnv3v4NUX7XXvftfpZ0jRVGuEYQWkYJRjFckktEixRhd6zOgaVZgqFGOCpbG1eXQuZdvh1noVKI88TiK6oudk4wglq5TkoxSXNtvgkZW85+trsj1Bp+L6Tcire68xpn5aY24iP79EJR+0rg+kzIrZbscxpg3po7o24eL15aTxEIx+0teVhe113ozPR2KtreSnbffUla3cbXfVGcZQmlKMouMk+TUlo0/OjnnpH2ZeHtuwz9q/wuGn+i2936U9Yv/1OhsPfCyKlCUZxktVKLUk0+1Nc0ax0lZD4bhXKEdb6NbK9NNZLTxoce9L60hUhdEjkOYvB4m0tkZbH0cGcm2QcW4vg4vRrzdh8mwbXYDdl18Vwl4s0lyl2Nry6aGvmOmdepzUo3AAPSsAAAyGzmb3YDF4fG4d6W4e2Nke6SXCUJd8ZQcovySZ21spndOY4LD4yiWtd9al5Yy/LhL9KMtV9BwqTR6mTbTwbEyyq+WlOKk54fefCF6XGC7t+K188S5TlZ2NI00ybznD+c0169Pf0x5+7f3nTCBRPgV1L5yAAAAAAAAAAAAAAAAAAAAAAAAAAAAAAAAAAAAAAAAAAAAAAAAAAAAAAAAAAAAAAAAAAAAAAAAAAAAAAAAAAAAAAAAAAAAAAAAAAAAAAAAAAAAAAAAAAAAAAAAAAAAAAAAAAAAAAAAAAAAAAAAAAAAAAAAAAAAAAAAAAAAAAAAAAAAAAAAAAAAAAAAAAAAAAAAAAAAAAAAAAAAAAAAFJFdTzxFsYRlObUYwTlKUnooxitW23ySSAtfcaj0rbSrL8FJVyXhGI1rq70nwnZ5kn9bRzNmt+r3E3we9J9rlx4eXv87RtvSRtM8fircTx6qP4PDQfZWuT0fKUn4z8jS7NTz6H9mnjsasRbHXD4WSnLVcLL+cIeWK9s/NHnqzEm3OVkdfyLB08owDr1uVbWfS3yY9niyT+ifZv1vwUZWR0xOI0st74prxK/oXPys3EB8DKSsrI59i8TPE1ZVZvbJ3/ALfQ1vpC2soyjCPEWLfsk9yilNKVtjT7+UVzb7EczbXbT4zNbXZjLZSjvJ14dN+D1aPWO5Xycl8J6v6NEsz0xbRSzDNLtJa0YSUsNSteGtb0um18J2KUfNBd5qFFM7Jxrri5WWSjCEVzlObSjFeVtmvZhi5VZ+The27Zzs6zovkNHCYZYisk5yWtd/sx32XB23vsPjtC/wA/4HRmx3RDluHw8PDqY43FTinbK7V1Qk+LhVVruqK5b3FvTn2LVum3o5wmDwnrhl1UcOqZRWJw8NeqlVOUY9bXF8K5wk1J6cHHf5tRPJ5VUUNa+3h/cuYfTPBVsSqCUld6qk7Wf1szQdgNssVk96nU5Twzf4bCb3iWJ6ayrT4V3LmmtE+T7GupMlzKrGYanFUS36r642QfLhLsa7Gnwa7GmcaqS71w7uJO/qZc3lPDYzBS1aw90L6n2RjiVPrIR70ra5Sb77mZOVV531JbuYiNN8qo+SWLp2Uk7SS/aT5+tceBZ9LGzUaL5SS/AYrefBaKFj4zS7uPEhPG4eVVk65c4vTXvXDdfmaev0nYO1mTQx2Fsoloptb1Un+TZHjF+bsfnOZ9tsqmt6Tg420OULY9uilpJfRLj5tSRqR1Xcq0VzXy9Hycntjs61zP6GoAApNwAAAB6Ye6dc4WVycLK5RnCaejjKLTjJeVNI8wLnkoqSs9p2f0S7XQzjLacRwV8F1WJgvyLoJb3D4MtVJeSRt6fkOQegnbN5RmcFbLTBYxxoxSb4Vtv8DiPJuTej/Rsm+xHXsGmlpy04GTCV0cK0myf0fi3GPIl60OrnXWn8rH2D531qo6rVptLt0Wib07tWvrPoqNfAAAAAAAAAAAAAAAAAAAAAAAAAAAAAAAAAAAAAAAAAAAAAAAAAAAAAAAAAAAAAAAAAAAAAAAAAAAAAAAAAAAAAAAAAAAAAAAAAAAAAAAAAAAAAAAAAAAAAAAAAAAAAAAAAAAAAAAAAAAAAAAAAAAAAAAAAAAAAAAAAAAAAAAAAAAAAAAAAAAAAAAAAAAAAAAAAAAAAAAAABRlSkgARl05bS9TQsBTLSzELW5p8Y06+1/bfB+RNdpv+d5jXg6LcTc9K6oOT7+C4Jd7b0X0nLe2Od2Yq67EWe63ybSX5EOSSWvZFpectVZWRtmiWUPF4lVJL1YWfXLmXZvZh7ITxN9dNS3pSkq4JdspPTX/PYmdHbFZFDLsJVh46b0VvWS+HbLjOT+nh9BG/QXszvSlmN0eENa8OmucuU7F5uS+kmPUpoQsr8Sc0szNVKiwtN+rDldMv7eI0LDaPHrC4PFYmXtaMPda/NXXKT83Iv9TUumGzdyPMv08LOp9nC7Sp+fhJ8C7N2i3wTNVwlNVa0IcZJd7scqwcmtZvem+M5dspPjKT8rer+k3ToUwKxGeYNSScaetxEl81W9x6+S6dTNMLvKM0xOEsnZhrHTK3D2YedkfdFCydM31cv9nLSrd3lx0lLk+K1LD1Iqqpy3bzvmZYedfCTo0rJyjqrovv8AkdWZ1tllWCk44rHYeqcXo4ue9JeSShq4/SY72dbP4xPDyx2EujYnGVdmu5JPmpdZFR085yw5JPVtavtb46+Vt6vzjmuz7+H0knLOHv1NhpsNAaKjZ1Z63Qklfq3nYOAyLLopTpwmC3WtYyrw9OjXklGPFfSZOuuMVpFJJdySX1I5V2C26xmUWxdcpX4ZtddhJSe64a+NKlyf4O5LXTsfJ966fyHN6Mdh6cVhpqym6G9CS+pxkvyZxkmmnxTTRJYXFQrq8dj50adnuSYnLp2qPWi+TLmfZzPxL3Qi/pi2f0ksbXHWNmleIilwT00jY/I14r+glEtszwVeIpnTYt6FkXFp8ea0T86MmUdZEdluOlhK8aq3c64rn/ziccZ3guotlFa7r8aHyX2fRyLEkTb/AGenVO7DyTdtLcqpae3WnDTv3lw86I7MRHaMJXjWpqUXsav2AAHpkAAAA6s9Tttr645esLdPXF4FRrlq/Gsp5VWeXReK/MjlM2Ho72nsyfMKMbDVwi9y+C/2lEmlNaac0vGXliu8qhKzNe0myhZhhHFcuPrQ7N67Tt1R7eHDl5Nef3L6j6LXLMbXiKar6pKdVtcbISXFSjOKkn9TLnUyThck07MqAAeAAAAAAAAAAAAAAAAAAAAAAAAAAAAAAAAAAAAAAAAAAAAAAAAAAAAAAAAAAAAAAAAAAAAAAAAAAAAAAAAAAAAAAAAAAAAAAAAAAAAAAAAAAAAAAAAAAAAAAAAAAAAAAAAAAAAAAAAAAAAAAAAAAAAAAAAAAAAAAAAAAAAAAAAAAAAAAAAAAAAAAAAAAAAAAAAAFNSoAADABSQ1MDt1tBHLsFbiHo5+0pj8K2Wu5qvgrm/ImHsLtGjKtNU4K7k7LtI06ddplZZHL6p+JTpPENPg7OcYP5K4vytES5HltuZY2rD1671stN7TVV1R4zm/NHV+dpdpTPsZKcpOUnOyyTstk3xbk223p2t6ku9Cmy/g2GeMtjpdiktzXnXQnrFLXk5Pxn+z3GHbykug6+tTI8sSXLasumT3vs39huM405bgZ9WlGrCYeUknw4Vwb4vvbXPvZzTPpMz2bc1mFsFNuShGujSCb1UVrB8loufYdPZ/lleNw1+Fuc1ViK5Vzdct2ajLm4y0ejNBw/QhkcYpT8Oua/LnjboNrsW7h3CHDyR1KsTTqzsqcrGtZDmGAw+vPGwdSUmrbFLre3nuQzPbjPsRZXUs1xKlbZVVDdjQkpW2RrjLhVq9HLXn2E/dLdcvWDGptyccNByl37koOcn9Cky3y3ojyLD21XV4W7rKZxsrc8fmFkVOL1jJ1zxDhLj3ozvSHgXicpzGiOu9Zg8TGOnPelTPda8uqX1HlCjUhTanLWbvt7CvMc1wmJxdCWGp+TjCSb2RV9q4dRyOXmS5fZjMTRhavdMRdCmOvJOb03n5IrWT8iZZQkmk1xTWq8z5G39DLj6/5bvct/ELl2vB4hR/4tPp0NZw1NTqqL4nWszxEqGDqVY74wbXWT7s1sBleCphUsJTdJRXWW31wtnZLTjJuae7q+xGn9NPR5hJYK3H4KmNGIwsHbZCmKjC6mPGyLrjw31HVprTitO0lrUtc3rjPDXqSTjKmxST5abj118htk6UJQcbLccMwmaYijiY19aWspJva9u3c+s40f8An6SZPUz53JWYvLZybrcFjKVq9ITTjXcl3KSlXLTvU32shXAP8FU3zdcNdeeritSQ+gRyWeYdLXjTiFLTtXVSfHhy3kjXMvk4YhJc7sdg0poRrZZU1v2VrLoaOmQ0A0bQcNNG6Wsg6+hYqtfhMOnv98qu393n9ZzltPgOrt6yK8S16vTsnza+nn9Z2LOKaafFNNNPinw5EAdJey6w91tCT6m3WzDy09qnrpHXvg9V5t19pj1oW2o3zRLNLf8ATTe7bHq512byIQfd1coScJLSUW015T4KDod1zAAAAAAHQfqW9tN6E8lxEvGrU7sDJvjKvXW7D6v8qLbnFfB3vgk+I4MyXMrsHiaMVh5bl2HsjbXJfCi+T74tcH5OD1O09gtqMPm+BqxlDXjJRth21XRS6yuWvHg/s0L8JbDkGmuTebV/Oaa9SpvtuU+fv395sIALhpAAAAAAAAAAAAAAAAAAAAAAAAAAAAAAAAAAAAAAAAAAAAAAAAAAAAAAAAAAAAAAAAAAAAAAAAAAAAAAAAAAAAAAAAAAAAAAAAAAAAAAAAAAAAAAAAAAAAAAAAAAAAAAAAAAAAAAAAAAAAAAAAAAAAAAAAAAAAAAAAAAAAAAAAAAAAAAAAAAAAAAAAAAAAKagFQfLZjM0zuqluC/CW9lcOa8s3ygvK/tPJSUd5ROcYK8nZGRnNRTbaSWrbb0SS7W+xaGCxe0a3t2iHWJc7JPdh5oLnPz8vOYXH4izEPW6SceG7THhVHT4S/20teKc+CaTSi+L+DBq4v3SIxGZu+rT7zMeyK34uv65fzD2it+Lr+uX8zDgsedVOPyMT0hW4+H5GX9kNvxdf1yIa6VtrXjr+xUYVOMFHXSc29JS0fa3wRtm3uceC4dxg/w1+sIeSP5c/oT087RCWZ3uU1XHV6Ps4uU3wS07X2edlyFWc1tOr/o8yupXvja27dD6y7NyM50bbPSzPHRU1rVW1be17Xdi/Fh9L0XmTOjaYKMVGK0jFJJLsS4JfUav0Z7NLLsFGMkvCLtLb32qTXCvXuinp59e82ozqUNVFzSLNPPcS9XkQ2R+r7fAqAC4QIPi2OqafKSaf0rQ+yjFrg4+2vyeWAx+LwjWioumq+DSdMvHpa15rq5RWvfF9xaZRj7MLiKMTU11mHtrujrw16uW9uv9FpaPzsnzpu2BnmEVjsJHXF0QcZ19uJqWrUU/jIvVrXnrJdpz3OLi2pKUZRbjJNNSjJPimnyaZq+MoTw9XWjxujt2RZpRzPBKE3eSjqzXPwv2nXOxu02FzXDRxGGmnqkrKm11lM+2FkdeD1+swXTFtVTl+XXV9ZHwvE1Tqw1Ses25rcdrj2VxT1b/R05nMlFs4PernOuWmm9XKUJad29Bp6FLZucnOUpSlL20pScpS04LWUnq/pMyWcepsjtta5A0dAoQxKqOpeClfVtt6E3f6HxGOiSXJJJeZErepqy12ZhisVo9zD4ZVa/9riJJxX7lVnD9KPeRvkmU4jHXww2EqldbPgkuCivhWS5Qh5X9p1J0cbKwyfAQwsX1lspStxFzSTtunpq0lyhGKjCP6MI66vVu1leGcqnlHuXizN0yzanRwjw0X689jXCPPf6GzAoVNhOQoozXNv8iWOwkoxX4arWyp9u8lxj5muBsY7w1dWZdoV5UZqpHY4u6ORtscvafXJNNPctWmjT5J/Xw8+hrX+f/wAeQnrpd2bVVzvUPwOK1U1q9I2aayXk1XFeVEG5hhZU2Srl2Pg/hR/JkvOv8TDcdV2OzZTjo4uhGceddz512FuAD0lAAAAyUugHbueW4ieCnHfpxko9Wm/a3rgn5pLh5yLT7p3t6PV7ysUk4OGu+pJ6xcN3ipJ8VpxK6bs07XI/NcBTxuGnRqbmt/Brc+w7Je2s09HRFNcGt58+4p7NpfER/eZH+zOMxN+FqtxlbqxMo62xaS1km1vqK9qpJJ6cNNS/vtjCLnOUYRXFyk0kvpZtFPA0pJPVPnXEKVGpKDaeq2rranbpNx9m0viI/vP+RZ5p0k14aO9bXBfBipNzl5or7yK8+2y514RceTukuC+bg+fnlw8hp2IunZJzslKcpPVyk9W/pJKhkVOW2St2mJLEtbjrTZrM/DcJhsUo7nhFULdxvVx31rpqZJGt9GP4ny39Up9E2Q1GtFRqSitybXczNi7q4ABbKgAAAAAAAAAAAAAAAAAAAAAAAAAAAAAAAAAAAAAAAAAAAAAAAAAAAAAAAAAAAAAAAAAAAAAAAAAAAAAAAAAAAAAAAAAAAAAAAAAAAAAAAAAAAAAAAAAAAAAAAAAAAAAAAAAAAAAAAAAAAAAAAAAAAAAAAAAAAAAAAAAAAAAAAAAAAAAAAfFkklq3olz7PtAufRbY/G10R3rZqCfBa8XJ90YrjJ+RIxGY7QJNwoSm+K6yT/Bx07tPbvyLRcOaMFZNzn1lk3ZPlvTa4LuiuUI+Rdxi1cVGOxbSOxGYQp7I7WZDMs6tt1jXrTXpz4dbJcVrqtVBavs48OfHQxsIJclp2vvb72+1n0mu/wDzyHAj6lVzfrEJWxE6rvJ9nMAOHeOHeWyyD5tmoxcpNRjFOUpN6JJLVsrwNL6Tc53K1hK341iUrWm9VDXhHg/ymvqR7GOs7Epk2WVMxxcMPDne18Et77jRttc9eJusv47uvV0RfDSte117m+MmZToU2aeKxTxlsW6cLLWGq4TxHOOveop6+druNZyzJcXmV27h63KEXu9Y+Fa4+NNy5c+7jw8p0BsngKcBhKsNWtVCK3notZT5yk9O1tskaMdu3cjvWbYmnluBWDw9rtKOz9mPT0szi/z5Ajw8Lj3MeFR7n9hl3Rz3yci4B4eFR7n9hTwpdz+wXGpLgXBTQ8PCl3MeFLuf2C6GpLge7NO206OctzR9ZZW6b/j6GoWPX4a03bFrx8Y2rwpdz+weFR7n9hTNRmrPai9hqtfDzU6TcWudMhjEdBMt59VmPidnWYfWf0uE0vsLnKugupS1xWPssin7SmuNe8u6Tk5NedaEveFR7n9g8Lj3P7DGWCw6d9VE1LSbNZRt5V9y8bGN2X2ZwWW19Xg6I1p+2lpvTm++dj4yMyjx8Lj3MeFR7n9hlppbiCqeUqScp3be9t3Z7FTw8Kj3P7B4VHuf2C6KNSXA9yjPHwqPc/sHhUe5/YNZDUlwLTaLK4Y3DWYefDfi92WntJrjGf0PT7TmfbfJpx34zi43YaUozj2tJ8dO9dq851E8VHykcdLmTQnpjao8UlC9ae2XKM2vIuHm8xaqpPajaNGMxeGreSlsjLd0S/vuObwZDPsD1Fr0XiT1lBdmnbHyNMsGWbnUoyTVygLnLcDdibI1UQdk5di4aLvbfCMfKSfsn0dYerSzHThfZzVCkupT5+O/9r5uXnMrD4SpWfqrt5iFzfSHCZbH9bL1uaK3v8u00bZbZPF5hJOuHV0J+NiLE1Wkuagudsvk8FpxaJc2U2PwmASlCPW36cbrEnPX9BcorzGRzDM8NhK1vOEYpaV1VpatLkoQXBJGj57tPfiU4Q1oqf5MX480/hzXLzI2rL8lSd7XfFnH890wxWYNxT1Ie7Hn63z+BtWe7UUYfWEGrreW7F+LF/pTXb5FxNGzbNb8U9bZ8FyguEI+aPf5WWINnoYSFJbNr4mmym2AAZJQdS9GH4my39Up9E2Q1vow/E2W/qlPomyHLcT7afxPxJmHJQABZKgAAAAAAAAAAAAAAAAAAAAAAAAAAAAAAAAAAAAAAAAAAAAAAAAAAAAAAAAAAAAAAAAAAAAAAAAAAAAAAAAAAAAAAAAAAAAAAAAAAAAAAAAAAAAAAAAAAAAAAAAAAAAAAAAAAAAAAAAAAAAAAAAAAAAAAAAAAAAAAAAAAAAAAAAAAAAAAYfbJ/6jivmn96MwzD7Ze8MV80/vRRU5L6i3V5EupkJY3MlTuqUp6y13YxfFqOmr4tJJb0f3jP0ZBj5xjNVT0nGMl+Fr5SWq/wBp3M0naH3aHza9OZPWTe9sP8xV/dxIHD01UbvzGr4aiqt9Zsj/ANjmY/FT/i1/1lPY5mPxU/4tf9ZJYMvzSHF95leY0+nvI19jmY/FT/i1/wBZT2OZj8VP+NX/AFklgeaR4vvHmNPp7yL8VkeY1wnZ1FstyLe7CcbJPTsjCE22/IkaNjMizK6UpWYHGvf111w9/J8NNd3uOiQVwoKJsuj+arJ3KVOClKWy8m7pcEQLhYZ5VFQrpx8IxWiUMNakktFyVfceqt2g+LzH/d7f6CdQXtvEnnpk27vD079RBXW7QfAzH/d7f6B1u0HxeZf7vd/QTqGzzbxPPtj/APj0u453ltHmSipvEYlRaWknCSi97k14p8eynMPzq/8Adl/SZDP/AHFpcliZJLuSumkvNokvoMER08dOLsRr0/lf7tS+ZfeynMPzrEfU/wCkeynMPzrEfU/6SxBT6QqHn/8AoEv9tS7mX3spzD86xH1S/pHsozD86v8A3X/SWIHn8x9v5f7al3GZy7Ns4xLksPPGXuCTkq6rJuKb0Te7DgtSuYZpnOG3Ovljad/e3Osqsjvbm7vbusOOm9H95G6+p/8AfGN+Zp9ORedPPumW/Ix3pYInspw/nkoxk2ta/wAr/kSdHTFzoqo8PS6rdhG2D2izK+fVU34qyzi9yuE5S0XPgodhkPCM++BmH+72/wBBb9D/AON/7PEelEnElsdlEcPU1FJvYn3l2npcpK/m9LuIV8Iz74OYf7vb/QPCM++DmH+72/0E1AwvMV7zK/tWv9vS7iFfCM++DmH+72/0DwjPvg5h/u9v9BNQHmK95j7Vr/b0u4hXr8++DmH+72/0HniJZ5OMoTrzCUZLRxeHt0aff4hNwHmK95nq0ss7qhT7jm7O9ksdfVKPgWL34+NW/BrvbJcn4vJrh9PkLXZvonzbEwhddh5Yep8erslCu9r9Kub1rXylr5DpsFdLBxhK729HMXsRpzjZ0nTppQvzreurgQ5l/R7i6I7lWGhBcNfwlesn3yberPPNtn8XhIKy6rdg3uqSnCS3nyT3XzZM5rvSN+L7Pl1+kT+Gx0taNNRildLYjR6+tUbnOTcuLd2QTnHusvNH0SyRe5x7rLzR9EsjbYcmxGlQAVgAAA6l6MPxNlv6pT6JshrfRh+Jst/VKfRNkOW4n20/ifiTMOSgACyVAAAAAAAAAAAAAAAAAAAAAAAAAAAAAAAAAAAAAAAAAAAAAAAAAAAAAAAAAAAAAAAAAAAAAAAAAAAAAAAAAAAAAAAAAAAAAAAAAAAAAAAAAAAAAAAAAAAAAAAAAAAAAAAAAAAAAAAAAAAAAAAAAAAAAAAAAAAAAAAAAAAAAAAAAAAAAABmH2y94Yr5p/ejMMw+2XvDFfNP70UVOS+ot1eRLqZz1tF7tH5uPp2E95P73o+Zq9CJAm0Xu0fm4+nYT3k/vej5mr0IkJgt8jXcBvZdAAkSRAAAAAAAAAAfJgPkwxzECZ/7jL9al/f2GCM5n/uMv1qX9/YYMgKvKZr8t4ABbPAAACT/AFP/AL4xvzNPpyLzp590y35GO9LBFn6n/wB8Y35mn05F508+6Zb8jHelgjddGfaU/wCLwZsWF+6L/Ocj7og/G/8AZ4n0kTiQd0Qfjf8As8T6SJxNmzn2/wDCi/h+T2gAESXwAAAAAAAAAa70jfi+z5dfpGxGu9I34vs+XX6Rdw3tY9a8SmfJZBOce6y80fRLIvc491l5o+iWRvcOSiMKgArAAAB1L0YfibLf1Sn0TZDW+jD8TZb+qU+ibIctxPtp/E/EmYclAAFkqAAAAAAAAAAAAAAAAAAAAAAAAAAAAAAAAAAAAAAAAAAAAAAAAAAAAAAAAAAAAAAAAAAAAAAAAAAAAAAAAAAAAAAAAAAAAAAAAAAAAAAAAAAAAAAAAAAAAAAAAAAAAAAAAAAAAAAAAAAAAAAAAAAAAAAAAAAAAAAAAAAAAAAAAAAAAAADMPtl7wxXzT+9GYZh9sveGK+af3ooqcl9Rbq8iXUznraL3aPzcfTsJ7yf3vR8zV6ESBNovdo/Nx9OwnvJ/e9HzNXoRITBb5Gu4Dey6ABIkiAAAAAAAAAA+TAfJhjmIDz/ANxl+tS/v7DBmcz/ANxl+tS/v7DBkBV5TNfnvAALZ4AAASf6n/3xjfmafTkXnTz7plvyMd6WCLP1P/vjG/M0+nIvOnn3TLfkY70sEbroz7Sn/F4M2LC/dF/nOR90Qfjf+zxPpInEg7og/G/9nifSROJs2c+3/hRfw/J7QACJL4AB4AAAAAAAa70jfi+z5dfpGxGu9I34vs+XX6Rew3tY9aKJ7mQTnHusvNH0SyL3OPdZeaPolkb3T5KI0qACsAAAHUvRh+Jst/VKfRNkNb6MPxNlv6pT6Jshy3E+2n8T8SZhyUAAWSoAAAAAAAAAAAAAAAAAAAAAAAAAAAAAAAAAAAAAAAAAAAAAAAAAAAAAAAAAAAAAAAAAAAAAAAAAAAAAAAAAAAAAAAAAAAAAAAAAAAAAAAAAAAAAAAAAAAAAAAAAAAAAAAAAAAAAAAAAAAAAAAAAAAAAAAAAAAAAAAAAAAAAAAAAAAAAAMw+2XvDFfNP70ZhmH2y94Yr5p/eiipyX1FuryJdTOetovdo/Nx9OwnvJ/e9HzNXoRIE2i92j83H07Ce8n970fM1ehEhMFvka7gN7LoAEiSJoXSV0hvJ8Rh8NXg44ud1M77HPFPDKqMZxrqS3aLN9yl1vwdOq7deGq/6bMR/8pp//s5//YGs9M+L67PMXx97VYTCLu0hU8W/+LGyT+T5DUSExGNqRqOMXuZr2KzCrGq4xexbCVP9NuI/+U0//wBnP/7Af6bcR/8AKaf/AOzn/wDYEV6DQsvH1uPyMf0lX4/IlVdNt/DXKatNVrpmc2+L05eAcSYsLZvwhPTTfhGWnPTeSemvbz5nI8l96+9HWmWe4U/NV+giSwNedS+sS2XYipWvrc3YXAfJgPkzPZJ8xAef+4y/Wpf39hgzOZ/7jL9al/f2GDICryma/PeAAWzwAAAk/wBT/wC+Mb8zT6ci86efdMt+RjvSwRZ+p/8AfGN+Zp9ORedPPumW/Ix3pYI3XRn2lP8Ai8GbFhfui/znI+6IPxv/AGeJ9JE4kHdEH43/ALPE+kicTZs59v8Awov4fk9oABEl81LpY2puyfL/AAyiuq2zwiqndu39zSam2/Eknr4i7e0iT/T1mf5ngPqxP/WN89Umn6yLRa/67h/QuOaN19z+pmxZTgqFalrVFd3f0MKvUlGVkyWv9PeZ/mWA+rE/9Yf6e8z/ADLAfVif+sRLuPuf1Mbj7n9TJT0ZhPdXe/zLHlqnFktf6e8z/MsB9WJ/6w/095n+ZYD6sT/1iJGux8H3Phw7/MUKvRWF5ofN/meeXnxOoOhnb7E554b4RTRT4L4Pu9R1njK7rtd7rJS5dUuWnNmx9I34vs+XX6RHXqXsqxFVGPxVlcoU4p4aOHlLh1qp6/fnFfA1sST7dGSL0jfi+z5dfpGsVoQhjNWnuUlb6/MzotundkE5x7rLzR9Esi9zj3WXmj6JZG30+SjBKgArAAAB1L0YfibLf1Sn0TZDW+jD8TZb+qU+ibIctxPtp/E/EmYclAAFkqAAAAAAAAAAAAAAAAAAAAAAAAAAAAAAAAAAAAAAAAAAAAAAAAAAAAAAAAAAAAAAAAAAAAAAAAAAAAAAAAAAAAAAAAAAAAAAAAAAAAAAAAAAAAAAAAAAAAAAAAAAAAAAAAAAAAAAAAAAAAAAAAAAAAAAAAAAAAAAAAAAAAAAAAAAAAAADMPtl7wxXzT+9GYZh9sveGK+af3ooqcl9Rbq8iXUznraL3aPzcfTsJ7yf3vR8zV6ESBNovdo/Nx9OwnvJ/e9HzNXoRITBb5Gu4Dey6KpFDGbWY7wbA4y9cJU4a6cHy8dVy3PpctF9JISdk2SDdlfgcyZ/jfCMZjMR2X4vEWx14+JK6fVLXt0r3V9BkOj3K4YzNsBRbXG2l2zturklKMq6qbGt6L4NdY6uwwFa0il3JGS2azq/L8T4Vh+r61U20xdkXNR61wbkop8XrXHn5TWITTq60uNzUYVF5bXnu1rnRnsLyf/AOV4D/daf6Q9isn/APlmA/3Wn+kgi3b/ADmTb9cLY68dIQpUV8lODaX0mTyTpSzXDyj10q8ZWn40LIKFrTfHdtr4a6ctYktHHUG7W+RNRzHDydrfImRbF5QmmsswKaeq0wtPNcn7Uz0IpJJJJJJJLglpwSS7Ea/sVtdhc1q36G4WwS67D2NK2pvt0Xt4N8prg/sNhM+Gq1ePOSUNVq8efnQD5MB8mVsr5iA8/wDcZfrUv7+wwZnM/wDcZfrUv7+wwZAVeUzX57wAC2eAAAEn+p/98Y35mn05F508+6Zb8jHelgiz9T/74xvzNPpyLzp590y35GO9LBG66M+0p/xeDNiwv3Rf5zkfdEH43/s8R6SJxIO6IPxv/Z4j0kTibNnXt18KL+H5PaACv0MiC9c+ZwT4SSa7mk19p8eDw+BD92P8j6jZFtpSTa9sk02vOlyPo9Gxnn1FfxcP3V/IsNoMdhcDhrsXiFXGmiDnJuMdXpyjHVcZN8NPKZM539Ufte8RiVlVMvwOElGeKcXwsxDipRqfeq4uLf6Uv0WZWCw0sRVUFu3vqLdWSjG5He2W0F2aYy3GXJRc3pVVH2tNK9pVHza8X2ttmf6H9h3nOM/CJrA4dxliZae6PnHDxb7Zacf0U+HE03A4Wy+2umqDnbdZCquEec7LJKEIrzt/adgbAbM15TgKcHXpKUY719iXut0kusn5teC7kkbLmeJWEoqnT2Nqy6FxMOjB1JXZm8PTCuEK64xhCEVGMYrRKKSSSS7NEYHpF/F9ny6/SNiZrvSN+L7Pl1+karhvax614mfNeqyCc491l5o+iWRe5x7rLzR9Esje4bkRhUAFYAAAOpejD8TZb+qU+ibIa30YfibLf1Sn0TZDluJ9tP4n4kzDkoAAslQAAAAAAAAAAAAAAAAAAAAAAAAAAAAAAAAAAAAAAAAAAAAAAAAAAAAAAAAAAAAAAAAAAAAAAAAAAAAAAAAAAAAAAAAAAAAAAAAAAAAAAAAAAAAAAAAAAAAAAAAAAAZTUqy3xGJjDhzfwVz+nuLVWrCnFym0kuJ6lc92yzvx6XCCU2vLux17tdHr9CZaX3Sn7Z6L4K5fT8I+NDUMx0nd9TDfzP6IvRpcS49cLfi6/wCJL/pjw+34uv8AiS/6ZbaFSE+0GN9/5IuakeBceH2/F1/xJf8ATHh9vxdf8SX/AEy3A+0GN9/5IakeBceH2/F1/wASX/THh9vxdf8AEl/0y3A+0GN9/wCSGpHgXHh9vxdf8SX/AEx4fb8XX/El/wBMtwPtBjff+SGpHgXHh9vxdf8AEl/0x64W/F1/xJf9Mtymg+0GN9/5IakeBc+uFvxdf8SX/TPmeZzS1cK0lzbsa/5DCZpnNVGsdd+z4Eez5T7PvNUzPM7cQ/HlpHsguEV5/hEfitMsRR2a93wVjPwuVyrbWrLize8r2ljfiFRGEWt2UnZGbcfF7I6xW95+Bn0RvsD78j8if3EkRN30SzOtj8F5as7y1pLZw5jFzLDxoVdSPBFQAbQR4AAAAAAAAAAAAAAAAAAAAAZh9sveGK+af3ozDMPtl7wxXzT+9FFTkvqLdXkS6mc9bRe7R+bj6dhPeT+96PmavQiQJtF7tH5uPp2E95P73o+Zq9CJCYLfI13Ab2XRo3Tljeqya+PLr7KaNW9NN6am39Vb+s3k8cXharo7ttcLY667tkIzjr36STWpn1I60WuJnVI60GuJyUuPLj9Jltm9m8dmLksHh5WqPCdrca6YPudkno5eRas6Bx+weT3tuzAUavtjF1tcNNVuNJMzeW4CnDVQoorjVVXHdhCK0SX+L8pFQyz1vXZDUsoSd5yuujeQHi+ivOq4uSqw1ui1cKsQ3Y/kq2uEW/pNLvrlCcq7IyhZXJwshNbsoSjzjKL5M6585CXqgsorqxWFxdcVGWJhZXdotN6VO44Tl+luza+gpxeAhCGvDm3jHZbGnDXhdW33I/yDOL8BiK8Xh5NWVvjH8m6vhv1TXbGSX0PRnUGR5lXjMNRianrXfVGyPbopLVp+VPh9ByiTt6n7FueV2VN6+D4q2teSM9LoxXkSsPMsqu7g+wpyms1J032Eih8mA+TJpk9zEB5/7jL9al/f2GDM5n/uMv1qX9/YYMgKvKZr894ABbPAAACT/U/++Mb8zT6ci86efdMt+RjvSwRZ+p/98Y35mn05F508+6Zb8jHelgjddGfaU/4vBmxYX7ov85yPuiD8b/2eJ9JE4kHdEH43/s8T6SJxNlzr2/8ACi/h+T2sgT1UGeWLEYLBV2yhGFdmItUJyg3KUtyClKL5aJvTykMyx1mnG+zTtTuno/I/GOyc32Wy7GXRxGKwdF90EoxsshvSUVxS48GitOy+Ww4xwGDT00971Pt17YlzC5pSo0lDUu+Owtzoyk73sRF6lTAJ+ueM3nLWVGFXHxU4Qd0n5310U/konQ8MFgqaIuNNNVMW9XGquFab5atQS1eh7kZiq/lqjnayfMZEIaqsYPb3aCOV5disdJKUqa31MHqlZiJ+JRB6cdHZKOr7FvPsOOb7p2TnZZJzssnO2yclo52WSc7JtLk3OTf0k2eqiz7elgstg+EdcXel3vWumL8qTm/2kQhJ6JvuWvl4Gz5Jh/J0XUe+XgtxhYmd5W4Et+pp2aWIx1uZWR1rwKdVD04PFXQanJeWFMmuP5wnzidFI1LohyH1vyfCUuKVs4eEXd7tu8eXHt01UV5EjbTXswxDrVpS5r2XUjKow1Yg13pG/F9ny6/SNiNd6RvxfZ8uv0ixhvax614lyfJZBOce6y80fRLIvc491l5o+iWRvcOSiMKgArAAAB1L0YfibLf1Sn0TZDW+jD8TZb+qU+ibIctxPtp/E/EmYclAAFkqAAAAAAAAAAAAAAAAAAAAAAAAAAAAAAAAAAAAAAAAAAAAAAAAAAAAAAAAAAAAAAAAAAAAAAAAAAAAAAAAAAAAAAAAAAAAAAAAAAAAAAAAAAAAAAAAAAAAABQqUkeNganzZYorVvQsr8yrjwjKLfJveWi/mWNmJUnrKyL/AGlovMteBr2ZaR4fDerBqc+CexdbL0aMnzMvcRjHLhHWK7/yvo7i00/z3+VvtZ8ddD4cP3l/MdfD4cP3l/M0TG5pUxUr1Jdl9i7Ll9UmtyPQHn18Phw/eX8x18Phw/eRha8eKKtR8H8z0B59fD4cP3kOvh8OH7yHlI8UNV8H8z0B59fD4cP3kOvh8OH7yHlI8UNV8H8z0B59fD4cP3kOvh8OH7yHlI8UNV8H8z0B5SvrSbc4JLm3JfzNfzbaWMdY0LefLrH7X9lP23nLVbE06Ubtrvv8i9RwtSrK0V9EZzH46uiO9ZJLuXNvyJc2zVc02htt1jX+Cg+7TrJLyy/JXm4+UxF9srJb85OUu9vV+byLzHwa5i82nV9WGxfNk/hcshT2z2v5AAEO23vJXcjP7A+/I/In9xJCRG+wPvyPyJ/cSSdy/R//AKZ/HI07O/vHYgADeCHAAAAAAAAAAAAAAAAAAAAADMPtl7wxXzT+9GYZh9sveGK+af3ooqcl9Rbq8iXUznraL3aPzcfTsJ7yf3vR8zV6ESBNovdo/Nx9OwnvJ/e9HzNXoRITBb5Gu4Dey6Nb2w22wGVTrrxUrlZbCU4Rqouu1jGSjJuUIOMeLXBtGyEZdP2SSuwlWMhHV4ST63Tn1FmicvNGe6/pfcZleUowco7zLxE5QpuUFdnziemjAr3PBY6zyqOHgtfL1lyaXmTN42Pz2vMsHVjK4ygrFLWuejnXKMmpQk4vTVadnectm59Gm3c8plKm2ErsHbPflGGnWUzftp1ptKcXotY8O9PsIzDY+TnapuInDZpKVT9buOiGRB6ozER1y6lNbyeIsku1RarjF+ZtNfQzYcX0uZRGDlCeItmlwrhh7Iyb7nKxKK+v6yF9rM+vzPF2Yu/SLa3KqovVVVRbcYJ/lPjq33sv47Ew8m4p3bMjMMXT8k4p3cjFInH1POHcctvtfK/GWOP9lGFL+2DISw2HndOummLnbbJV1wSbcpyei5dnb5kzqHY/J45fgsPhI8eqrSlL4Vj42S8rcmzFy2m3NyfMrGHlFJubm+ZWMsHyYD5Mm2bBzEB5/wC4y/Wpf39hgzOZ/wC4y/Wpf39hgyAq8pmvz3gAFs8AAAJP9T/74xvzNPpyLzp590y35GO9LBFn6n/3xjfmafTkXnTz7plvyMd6WCN10Z9pT/i8GbFhfui/znI+6IPxv/Z4n0kTiQd0Qfjf+zxPpInE2bOfbr4UX8Pye0AAiS+CqKFtm2I6rD328urptnr2LdhKS+1Hlr7AcmdK+a+GZzj7k96CudNb/wCzo/Bx+1Mx2xeWeGZlgcNzV2JqUl2OEZb80/I4xa+kxNtrslKx87JSsfnnJzf2yJF9TpgutzyE2tVRh7rPM5JQi/rZvdb/AKfCO37MbfQio+tPtOnYRSSSWkUkoruSWiX1FQDRSVBrvSN+L7Pl1+kbEa70jfi+z5dfpF3De1j1rxKZ8lkE5x7rLzR9Esi9zj3WXmj6JZG9w5KIwqACsAAAHUvRh+Jst/VKfRNkNb6MPxNlv6pT6Jshy3E+2n8T8SZhyUAAWSoAAAAAAAAAAAAAAAAAAAAAAAAAAAAAAAAAAAAAAAAAAAAAAAAAAAAAAAAAAAAAAAAAAAAAAAAAAAAAAAAAAAAAAAAAAAAAAAAAAAAAAAAAAAAAAAAAAAAAHjjvc5/Il9zPY8cb7lZ8iX3MtV/Zy6n4Hsd6IwxF24lw115acOzj95k8qyi7EVRtg6oqWvBuWq0bXZHyGEzP8j9r/lN52M951eefpyPn3RzLaOOxU4V7tJSextbb9BtmNm6NCM4b7/mYxbNYj4dP70/6R7GsR8On96f9JtqBu/2Oy73Zfzy/Mh1mNbiu5GpexrEfDp/en/SPY1iPh0/vT/pNtA+x+Xe7L+eX5j0jW4ruRqXsaxHwqf3p/wBI9jWI+FV+9P8ApNtGo+x+XcJfzy/Meka3FdyNS9jWI+HT+9P+kp7GsR8On96f9Jm8Xn+BpnKu3G4WuyPtoWYimE46rVb0ZSTXDT6z6wOeYLET6ujF4a6ejluVX1WT3VprLdhJvRarj5UW/spld9Wz/wD2P8yvz3EWvzfCYP2NYj4VX70/6SnsbxHw6volPX6PFNuBc+x+XcJfzy/Mo9I1uK7iNc1qlBTjJaOL0a4Pjw7uZizPbUe63/LX+BgTlmKpKlXqU47ozkl1J2RtODetSTf+bAADHMsAABmf2B9+R+RP7iSSNtgffkfkT+4kk7n+j/8A0xfHI07O/vPYgADeCHAAAAAAAAAAAAAAAAAAAAADMPtl7wxXzT+9GYZh9sveGK+af3ooqcl9Rbq8iXUznraL3aPzcfTsJ7yf3vR8zV6ESBNovdo/Nx9OwnvJ/e9HzNXoRITBb5Gu4Dey6Pi6uM4yhOMZwknGUJJSjKMlpKMovg4tNpp959gkSRII2/6Mr8LOd+AjLEYVuUnStZX4ft3V23VLseu8uT103nHTlo3F8JJ6OLW7JPyxfFHXhjM12ewOKeuJwlFr751xcn53pq/rI2vlsZu8dngRNfKozetB2fyOV35eRcZXgb8XYqsLVO+b5RqjvJcdPGlygu/V8NDo9bCZOuPrbhf4ZnMFgqaI7tFVdUe6uEYLh8lLUtQyvbtfyLMMn2+tL5GjdFfR8su/1vF7tmOnFxil41eFrfOFb08a1/lT/ZXDVykEAlKcFCOrEmKVKNOOrFAPkwHyZWy5zEB5/wC4y/Wpf39hgzOZ/wC4y/Wpf39hgyAq8pmvz3gAFs8AAAJP9T/74xvzNPpyLzp590y35GO9LBFn6n/3xjfmafTkXnTz7plvyMd6WCN10Z9pT/i8GbFhfui/znI+6IPxv/Z4n0kTiQd0Qfjf+zxPpInE2bOfb/wov4fk9oABEl8GC6QVY8qzBUxlO14W1QhDXelJx0Sjpx1M6BGWrJPg0zxq6scYx2XzFf8AwOK/gz/kSv6mrJMTh8djbMRh7qU8JCEXbXKCb66MmlvLnoid9QS+Kzidem6bilfgY8cMoO6AAIgyWDXekb8X2fLr9I2I13pG/F9ny6/SLuG9rHrXiUz5LIJzj3WXmj6JZF7nHusvNH0SyN7hyURhUAFYAAAOpejD8TZb+qU+ibIa30YfibLf1Sn0TZDluJ9tP4n4kzDkoAAslQAAAAAAAAAAAAAAAAAAAAAAAAAAAAAAAAAAAAAAAAAAAAAAAAAAAAAAAAAAAAAAAAAAAAAAAAAAAAAAAAAAAAAAAAAAAAAAAAAAAAAAAAAAAAAAAAAAAAAPDG+5WfIl9zPc8Mb7lZ8iX3Ms4j2cup+BVHeiKcz/ACP2v+U3rYz3nV+36cjRcz/I/a/5TetjPedX7fpyOGaF/fZ/DL+o2jNPu0fi/MzJUoVOomuAA+ZNLi3oDwqzEbT51DBUOctJWSTjTX2zn2cPgrm33Ixm0e2VFG9Xh3HE38V4j1prf/a2Lg2n+RHWXfonqR9mGMtxFjtvm7LHw15KC+DCPKMfMa3nGkNLCxcKT1p2ts3Lrf0JvLsonXalUVo/N9R5OyUnKU3vTnKU5y+FKbcpP6W2Zzo9/GdXzGI/8owSM70efjOr5jEf+UaLkk5TzCnKTu3O7NnzCKWFqJe6SoADrxz0j/an3XEfL/kYEz21PuuI+X/IwJwjMfvdb95P+pm8YL2K6l4IAAwzMAAB4zP7A+/I/In9xJJG2wPvyPyJ/cSSdz/R/wD6Yvjkadnf3nsQABvBDgAAAAAAAAAAAAAAAAAAAABmH2y94Yr5p/ejMMw+2XvDFfNP70UVOS+ot1eRLqZz1tF7tH5uPp2E95P73o+Zq9CJAm0Xu0fm4+nYT3k/vej5mr0IkJgt8jXcBvZdAAkSRAAAAAAAAAAfJgPkwxzEB5/7jL9al/f2GDM5n/uMv1qX9/YYMgKvKZr894ABbPAAACT/AFP/AL4xvzNPpyLzp590y35GO9LBFn6n/wB8Y35mn05F508+6Zb8jHelgjdtGfaU/wCLwZsWF+6L/Ocj7og/G/8AZ4n0kTiQd0Qfjf8As8T6SJxNlzn2/wDCi/h+T2gAESXwAAAAAAAAAa70jfi+z5dfpGxGu9I34vs+XX6Rdw3tY9a8SmfJZBOce6y80fRLIvc491l5o+iWRvcNyIwqCgKwVBQqAdS9GH4my39Up9E2Q1vox/E+W/qlPomyHLcT7afxPxJmHJQA1GpZKgBqAAAAAAAAAAAAAAAAAAAAAAAAAAAAAAAAAAAAAAAAAAAAAAAAAAAAAAAAAAAAAAAAAAAAAAAAAAAAAAAAAAAAAAAAAAAAAAAAAAAAAAAAAAAAAAAAAAAAeGN9ys+RL7me54Y33Kz5EvuZZxHs5dT8CqO9EU5n+R+1/wApvWxnvOr9v05Gi5n+R+1/ym9bGe86v2/TkcM0L++z+GX9RtGafdo/F+ZmSpQHUTXAzWekn8X2J8nOtNd6cuKfejZmYfbDLLMXhZU1OCm5wac21HSL1ftU3qY2OpznQnGG9xaXWZGDlGNeDlsSkmyJUku7TTs4JL+Rd4TKsRfVddWtyqqqyx3SXivcg5KMF+W21z5G75PsJRW1LEzeIfPc3dylNcnuatz/AGm/oM5tDWoYHFxikksLeklokvwUuSNKwGijSdXFPqivq/yNkxWfRvq0Nt+d/REQweqT71/gZ7o8/GdXzGI/8owFPtY/JX3Gf6PPxnV8xiP/ACjXcj+/0/jJbMfutT4SVAAdgZzwj/an3XEfL/kYEz21PuuI+X/IwJwjMfvdb95P+pm8YL2K6l4IAAwzMAAB4zP7A+/I/In9xJJG2wPvyPyJ/cSSdz/R/wD6Yvjkadnf3nsQAKam8EOVAAAAAAAAAAAAAAAAAAAAAZh9sveGK+af3ozBhts/eGK+af3ooqcl9Rbq8iXUznvaL3aPzcfTsJ7yf3vR8zV6ESBNovdo/Nr07Ce8n97Yf5mr0IkJgt7NdwHOXQAJEkQAAAAAAAAAHyYD5AcxAef+4y/Wpf39hgzOZ/7jL9al/f2GDZAVeUzX5bwAC3vPAe+Bwdt9kaqa5W2Sa0hBNy7uzlHym27G9HuLx27ZcnhcM9HvzX4WxP4qt8Y8PypafSTHs1s5hcvr3MNUot+2sfGyb75zfFmfQwE6m2WxfMkcNl06vrS2L5mtdFOyF+XK27ESj1l8ILqo8dxRba1l2y4mI6efdMt+RjvSwRKaIs6efdMt+RjvSwRt+SU1TxEIrdt8GTcqSp0dWPMR90Qfjf8As8T6SJxIP6IPxv8A2eI9JE4E7nPt/wCFFFDk9oABEl4AAHoAPHEYmMOHGUvgx4vzvsivKwVQhKbtFHsWtuL7IJS07eUfr7S2ssnP2zWnwVy+l/lD/PkLkafElaGXc8+49PC7fgw/el/SY/aCieMolQ92Ck4veW9J+K9dNGi8BcjFRd1vRmPBUXviiPcX0bdZJy8La104KrXktO88f9GC/O3/AAv/AHEkAzlmFdfteBb9GYf3URv/AKMF+dv+Ev6h/owX52/4S/qJIB76SxHveA9GYf3URv8A6MF+dv8AhL+of6L1+dv+Ev5kkAekcR73gPRuH91H3s5i7cFhMPhIxrsWHphUpuUouW4tNXHdehkPX674uv8Afl/SYxFGRkqEJNtra9pdWDpbreJlPX6/4uv9+X9J8z2htim5QqSXNuySX0vdNZznPacPrFvft+LjzXdvvlH7/IabmmbXYh+PLSPZXHhH/wBX5WVwwMZcxep5bCXMSXk+2fhOMrwsIRcZb+9YpS0TitdIpx8bibnEhXo2/GVH7fosmtGBj6MaVRKPAi8yoQo1FGHAAAwiPAAAAAAAAAAAAAAAAAAAAAAAAAAAAAAAAAAAAAAAAAAAAAAAAAAAAAAAAAAAAAAAAAAAAAAAAAAAAAAAAAAAAAAAAAAAAAAAAAAAAAAAAAAAAAAAB4Y33Kz5EvuZ7nhjfcrPkS+5lnEezl1PwKo70RTmf5H7X/Kb1sZ7zq/b9ORouZ/kftf8pvWxnvOr9v05HDNC/vs/hl/UbRmn3aPxfmZlgM1Tb/PLsKqa8PLcsscm5bsZNQguLSmmvbNLl2nSsViYYek6tTdEgaFCVaooR3s2oNkUeynMfzmX8Gj/AKZsHR7j8ViL7nbdKyuFceEtNFOUuGiikk91ETg9IcNiqqo0ta76LEhiMnrUKbqTasuBvBjtpveWL/Vr/wC6mZEx203vLF/q1/8AdTJmtyJdTIyny11oh2r2q8y+5Gf6PPxnV8xiP/KMBV7VeZfcjP8AR5+M6vmMR/5RyTJP9Qp/GdAzH7rU+ElQAHX2c8I/2p91xHy/5GBM9tT7riPl/wAjAnCMx+91v3k/6mbxgvYrqXggADDMwAAHjM/sD78j8if3EkkbbA+/Y/In9xJGp3P9H/8Api+ORpuefeOxFSjKSmktW9EjB5lny4xw6U3ydsvc18ntsfm4cefBo3unTlN2iQNfE06EdabsZfE4qupb1klFeX/Bdpa+vWG+NX1S/kavbZKb3pyc5fCen2JcEvIfJnRwCtte016ppBLW9SKt07zavXrC/Gr6pfyHr1hfjV9Uv5Gqgq8wjxZR9oKvur5m1evWF+NX1S/kPXrC/Gr6pfyNVA8wjxY+0FX3V8zavXrC/Gr6pfyHr1hfjV9Uv5GqgeYR4sfaCr7q+ZtXr1hfjV9Uv5D16wvxq+qX8jVQPMI8WPtBV91fM2r16wvxq+qX8h69YX41fVL+RqoHmEeLH2gq+6vmbV69YX41fVL+Q9esL8avql/I1UDzCPFj7QVfdXzNpedYb41fVL+Ri9q80oswd9cJ705VtKKjLVvVeQxOhU8eXwatdlE8+qSTWqtpFebZTibb61CqejhGO84S3Yvfn7bh5SXcszWmumquUpOVdcIN7k+LjFRb5eQtgYlLJacHdNmBRx86TerYyXr3h/hS/cn/ACHr3h/hS/cn/IxoZe9GR4svelqvBGS9e8P8KX7k/wCQWdYfvn/Dn/Ixds4xTlKSjFcW3wSXlb5GlbR7cwjrXg9LJcndNfg18iL9u/Ly85eo5K60rRb7jHxOkDoLWm0ugkaW0GFU4VuzSc21CDi1KWi1eifNFx65Vd8vqIFyjG3TxcbZ2zla97x3LWXJ8tOS07FwNq9cMR8bZ+9L+ZGZ3hJYCqqad7xvu5y5led1MbSc1GyTsSh65Vd8v3R65Vd8v3SL/XDEfG2fvS/mPXDEfG2/vSIXzifAk/OqnD5MlD1yq75fulJZlV3v6iMFmGI+Nt/ef8y8y6rH4pSVMrpR0alLf3EuxpSk9N7QtVcd5NXnsXSVwrVqjtGLfYannz1ob7HiHJeaV05Rf1NP6TBm/wCb7F5hZUoV0w9vBpdbUkox7F43cXOyvRw95WZi5bqfDD0Sg3PT423e8WP6MOPLxucSL87ozly0Uwy3ESlbVavxNM2d2fxePnuYapy0ek7Hwrgv0pctfJxJi2N6OsLglG2/TE4jg96S/BQf/Z1vg3r+U+PLkbHgLKKK41U4d1VxWkYQjVGKS7kpFx64r4uz/g/rJTD4jA09rqRbJvDZUqW1q7LxI+kWPrjH4uz/AIP6x64r4uz/AIP6zO9LYT8SPeZ/kpcC+Iq6efdMt+RjvSwRJHrivi7P+D+s0XpTyfE5jLByw1WvURxSs351w0drwzjp43H3KX2GflmdYKniIylVikr7b9DLdajNxaSIy6LqLK8c8W1u0wdsG9OMt+T4R79NNSW/X7D98/3GaPTspnEI7sIxjFckr6vp7T69jGdeT+PT/UT2LznLcRPWeIhw3/2MWnSqRXJZu3r9h++f7jK+v2H75/uM0j2MZ15P49X9QezGdeT+PV/UYvpDK/8AcQ7/AOxc1anus3d57h++f7jCzyjvnq+S3G2/MjQMLleOdvV24mFSik5y6yFmnHTSKi9HLg/Ibdl9OHpikrFKemjsnNOcvO9Fp5kZNN4atBVKE1NPnjtXgZ2Hy+rN3mnFGVtxUprxdYLva8f6PgnjGKXJc+b7X5W3xbPPwmv4yH7y/mPCq/jIfvL+ZXGCW4m6WGjTVoo9kDx8Kr+Mh+8v5jwqv4yH7y/me2L9mewPHwqv4yH7y/mPCq/jIfvL+YsxY9gePhVfxkP3l/MeFV/GQ/eX8xZix7A8fCq/jIfvL+Y8Kr+HD95fzFmLHsDxeKqS1dkNFz8aP8zXc32pitY4Zb75O2XtF8lfl+d8POexg3uPYwctxnsxx9VEd6yaiuxflP5K5s1DN9pLbdY1a1VvXin+EkvOva/RxMNiL52Sc7JOcnzcv8O5eRaLgeZlwoJbzMp4dLftGv8AMAF5mQbH0bfjKj9v0WTWQp0bfjKj9v0WTWQGae27DWM59sur6sAAjSIAAAAAAAAAAAAAAAAAAAAAAAAAAAAAAAAAAAAAAAAAAAAAAAAAAAAAAAAAAAAAAAAAAAAAAAAAAAAAAAAAAAAAAAAAAAAAAAAAAAAAAAAAAAAAAAB4Y33Kz5EvuZ7nhjfcrPkS+5lnEezl1PwKo70RTmf5H7X/ACm9bGe86v2/TkaLmf5H7X/Kb1sZ7zq/b9ORwzQv77P4Zf1G0Zp92j8X5mZZg8+2apxlkLLJ2RcIuOkGlwb15tcDOMHTatGFWOrNXXBmv06s6b1oOzNWjsLglzliH5Hav8ImWyPJKMGpqlS/CNOTnLeb3VovsMk4hIs0cDh6UrwhFPikkXamLrVFacpNdLKmO2m95Yv9Wv8A7qZkTG7T+8sX+rX/AN1MvVeRLqZZp8tdZD1XtV5l9yM/0efjOr5jEf8AlGAq9rH5K+5Gf6PPxnV+r4j/AMo5Hkn+oU/jOgZj91qfCyVAAdgOeEf7U+64j5f8jAme2p91xHy/5GBOEZj97rfvJ/1M3jBexXUvBAAGGZYAPmc0tO9vRJJtyfHRRiuLfkLtKjOrNQgnJvcltbKKlSMIuUmklzvYjYdguGNj8if3G7Znm1VPi+3s+BHi/wBp8or7TQMjwt8Jda5unWLjux0drUlx3prhW/JHV+VcjLRSS0XD/PFvvZ9E6EZHXwmXqGJWq229Xns+JyvSLSOlOu/NvW2W1ubs4nvjsZbe/wAI9I/Fx1UF8rtm/PwPFAG+QioqyNHq1p1Za022wACotAAAAAAAAAAAAAAAAAAAAAAAtczzCnDQdl04wiu98X5IrnJ+Q9Su7IplJRWs9i4l0YPaHabD4PWLfWW/FQfFfLfKK+01DaLba67WvDJ0VfD/ANtNd+q9yj5uL7zU29Xq+Lb1bfPykxhcpcttXYuHOa9js+jH1aO18Xu7OJlM+z7EYx/hJaV/k0x1UEv0l+W/K+7kYoAnYU4046sVZGr1a06r1pu76Ta+iT8b4XzWf3cjoXdOeuiT8b4bzW/3cjoWU0lq+CNI0m2YlfCjrmgK/wChl8b8EVaR5X3QgtZcO5c235F2lriMe3wrX7cl4v7K11l5+XnLTTi223J/lPn/APjyHO8y0hpYf1aXrS+S7ec3+NG+89L8TOeqT3I+T2788uz6Dyily7iqRU0bF42tiZa1V38F1GQkkrIpoCoMUFAVB5YbSgKgWG0oNCoFhtGhTU+bbYxTlJqKXFuTSSNbzXaTi44fzO1/8kf8X9pj4jF06CvN/mX6GGqVXaK/IzmYY+qhb05LyRXGT8yNTzbPLbtYx/B1v8lPxmv0pf4GMuslOTlOTk29W29T4Naxea1K3qx9VfNo2LC5ZCltltfyR53YtUpyactUkknpq9Xx1ZnNncBbjaeuhKuC3pQ0kpN+Lpx4ec1bO+UfOv8AE37ou94/21n3RPoHQSpKGQ0pR4y8S3mc3ThrR33R8+xi/wCNp+qY9jF/xtP1TNsiVNm87q8fkiD8+rcV3I1L2MX/ABtP1THsYv8Ajafqmba2WuYZhRh4OzEXV0wXOVk4wivpk9D1Yuq93gj1Y6s9z+SNc9jF/wAbT9Ux7GL/AI2n6pi7pHyWLaeNi9O2Fd1kX5pQg015mXGW7eZTiJbleNqUm9FGzepcn3RVqjvfQXHVxCV2n/L/AGLzrYtK7T/l/sW/sYv+Np+qY9jF/wAbT9Uza67FLjFpp8nqtGfWpa87qcfkix59W4/JGpexi/42n6ph7M3/ABtP1TNtA87qcfkj3z6txXciMM7rcIYiuWm9XGUZJcdG64zX/DOL+k083fa73bMe7ej/AODwxpCJmg3KCkbBhpOVNN85UAF8vgAHjBsfRt+MqP2/RZNZCnRt+MqP2/RZNZAZp7bsNYzn2y6vqwACNIgAAAAAAAAAAAAAAAAAAAAAAAAAAAAAAAAAAAAAAAAAAAAAAAAAAAAAAAAAAAAAAAAAAAAAAAAAAAAAAAAAAAAAAAAAAAAAAAAAAAAAAAAAAAAAAAHhjfcrPkS+5nuzwxvuVnyJfcyziPZS6n4FUd6IpzP8j9r/AJTetjPedX7fpyNGzCLk60k23qkl2vhwN42bjKjDwrsS3lq+HYpPXR+XicI0RqxpYucp7FaS/wDkbPmkl5vFc9/zM0VLbwpdzK+FLuZ0f0lh/eNe1WXALfwldzHhS7mPSWH95fMarPdlrm2F6+i6lPddtVlak+S34OKb79NT78JXcyjxK7mePMcM1ZyPUmndGgx2BxKSXhFHBJe0n2ftGU2X2TuwmKjiJ3VzUa7IbsIyTbs3NHq3y8X7TavCV3MeEruf2ETQwmVUZqpBJSTundkhUzPE1IOEpXTVtyLhA8PCV3MeEruZL+ksP7xHarNG2p91xHy/5GBM5tNLWy598/5GDOK46SliqrXPUm/mbtgvYrqXgCkvqXb5DztvUeHFy7l2eV9iRa2Scn4z80VwX/qzIwWV1sRtWyPFmLjs2oYXY3eXBHriMVopbvHRPxuzXTs7zF4DaC6nWUY1uWj1nKOstO5PXxY+RdxeW+1l8l/calmLe7HjprJJ6d27Lh5uB9AforyTCQ8tJwUpLV9Z79t724HCv0jaQY2o6UYTcIty9Vbtlt/E26jazGWa9XCFmnPq65T015a7vI9fZJmHxD/gTL/oMitMZ8qr7pEnuK7l9R0XG4ylh6rpqknbpZA5Zk1fF4dVniJq/NZEQ+yTMPiH/AmPZJmHxD/gTJd3V3fYFFdyMX0pS/CXeZ/2Zr/7mf8AKiIvZJmHxD/gTHskzD4h/wACZLMrql+VD96K0PuO6+Wj8vD/AAPfSdP8Fd7H2arf7qfdEiP2SZh8Q/4Ex7JMw+If8CZLu6u5Fd1dyPPSlP8ACXePszX/ANzPuREPskzD4h/wJj2SZh8Q/wCBMl7cXcN1dyPfSlP8Jd4+zNf/AHM+5EQ+yTMPiH/AmPZJmHxD/gTJe3F3DdXch6Up/hLvH2Zr/wC5n3IiH2SZh8Q/4Ex7JMw+If8AAmS9uLuG6u5D0pT/AAl3j7M1/wDcz7kRD7JMw+If8CY9kmYfEP8AgTJe3V3Io4ruX1D0pT/CXePszW/3M+5EReyTMPiH/AmPZJmHxD/gTJXliKlwc601zTlFNfRqfVd1UnpGcJPuUot/UmPSdP8ABXe/yH2arf7qfdEib2SZh8Q/4Eyktpselq6dPPTNfeS+oruR8zri+aX1ILNKV/ZLvYejNfmxM/5UQzftji1GTSr1UXp4j5r6TU8xx12Im7LrJTl5eSXcl2I2TpDqjDG4yMIqMU9dIrRauCbennZqRtWDpUtRVIxSbSfeaBi6teNWdGc3LVk49zsAAZphgAu8mrjPE0Qkt6M7YRknyaclqn5DGxmJWGoTrS2qEXJ9SVzIwuHeIrRpLY5NRXa7Gz9EmDu8PqxMapypqVilZyhq4SikpPm9WuRM105WcZvVdkfyV/P6TTFmMqYxhGXVwitIwhFJJdiUYrgjI1eGzSnHrGpJNNLmn9B8r55+kKvnlVunSmo2sox27Ol/4j6UyLRT0RhlS1023dt7NvQbDoDA7mO7rf3UNzHd1v7pr3nlb8Cp/KTPmf8Azj3meBgdzHd1v1Dcx3db9R555W/Aq9w8z/5x7zPAwO5ju636huY7ut+oeeVvwKv8p55ovfj3meBgdzHd1v1Dcx3db9Q88rfgVO498z/5x7zPAwO5ju636iko45dlv7v/AKB4ystvkKvcPM178e82AxObZ5VRrFePZ8FPgvlSMBmWY37mnWTWstHx0enHVcOKMP8A5/z5SLr55rRtTTT6fyJDC5Sn603ddBd5jmFt71nLh2RXtV9HaWgBCTqObvJ3ZOwgoLVjsQABQiox2c8o+df4m/dFvvH+2s+6JoOc8o+df4m/dFvvH+2s+6J9J6Ef9v0ut+JDZx7LtRtSDYQZsBrRq3SPtfXlWG1SU8VbrHD1Pk32zn3Vx1Xn4Lzc+ZzmuJxlruxNs7rG21vPxYJ9lcFwguzh3cdTMdJecSxuZYibesKpOildirremq7tZbz+lmBy/CzvuqorSdl1ka4J8t6T5vTjouL8yZsuBw0aVPXe+12bZl+DjRpa7372eCQ8n/4Ogcl6L8qppjG2h4m3ROdt05tyl27sItQhHs0S7OOr4ml9KvR3TgqXjcDvxpi119EpSmq0+CtqlLxktecW2uWmgp5lSnLUs9uzae082o1J6m3a9l7WNc2H22xWVzik3dhNVv4eUvapc5Ut+5y5cOXD6ToXKMwqxVFeIpkp12xUotdz5p90lxTXkOUSWOgDO2pX4CctY6dfSnyXFK2MV3a7r+kx8ywi1fKR3rf0mNm2Cjq+VjvW/pJhABBGtkbbW+7Zj8qP/g8OaSjdtrfdsx+VH/weHNJRsWF9kuo2rCeyj1LwKgAvmSAAeMGx9G34yo/b9Fk1kKdG34yo/b9Fk1kBmntuw1jOfbLq+rAAI0iAAAAAAAAAAAAAAAAAAAAAAAAAAAAAAAAAAAAAAAAAAAAAAAAAAAAAAAAAAAAAAAAAAAAAAAAAAAAAAAAAAAAAAAAAAAAAAAAAAAAAAAAAAAAAAAAeGO9zn8iX3M92eGO9zs+RL0WW60daDXQxe20jCvFRTjJOalHk1XN6dj0e6XPrxZ8bb/Dn/QY/H4t1xjot5y10114Jad3nMxkmXSxFMLXYo7294qg3ppJx57/kOIx0dipyUKs47W3axfWeVJ/+OLtxLf14s+Nt/hz/AKB68WfG2/uT/oMr6wv47/u//ePWF/Hf93/7y79m5fi1O9FXpep+HAxXrxZ8bb/Dn/QPXiz4239yf9BlvWF/Hf8Ad/8AvHrA/jv+7f8AWe/Zqf4tTvQ9L1fw4GJ9eLPjbf4c/wCgevFnxtv7k/6DLesL+O/7v/3lPWF/HL+G/wCsfZqf4tTvQ9L1fw4GK9eLPjbf4c/6B68WfG2/uT/oMr6wv47/ALv/AN49YX8d/wB3/wC88+zUvxaneh6Xq/hwMV68WfG2/wAOf9A9eLPjbf3J/wBBlfWF/Hf93/7w8hl8av4b/rH2al+LU70PS9X8OBrePxUXBtuTfDVuFmreq/RMPbdKXLWK/wCJ+d9hnM7rcIWQbWsWo8OTaa4ryGvlqjkNGhO7bl1lFXP69SGpFKPG28Jaf5/zxK6lASlklZEPJuTuz5t9rL5L+41HMfaw+WvQmbdb7WXyX9xqOY+1h8tehM65+jD/AM/8P1Obafcqh1yJE6C+WM+VV90iTyMOgvljPlVfdIk5vT7f8TYM3+9T614E7o19wh2+Jru3O1lGV070/wAJdZqqaIvxptc5Sf5Na4ayIU2j2vzDHSbtvnVD8mnDzlVCK485RanJ8ebZ4bZ53LMMdfidW63N14da8I0Vtxg46cPH42a89LEuxGOy/B3Ym6vD4eDsuuluVw5LVptyk/yYRipSb7EmbRlmV0sPR8rVSbtdt7kjWM0zitiqzo0W0r2Vt7Z4tt85Tb73Obf0tviXmWZti8NNTw+KxFUl2K2c4cOa6uxuOnLsJDwvQ9a4J2ZjCM2tWoYSU4p9yk705pd+i17kaJtXkN2W4qWFvcZvcjZXZDVQtqk2t9KXtZKUZRcW+Gi4tNGVRx2DxUnSjZu25x3/ACMXEYDH4OCqyulffrXaJU6N+kLw2ccHjVCvEtPqrY+LXe1ziov2tqXHTtXLkSIcoWSnFb0JShODjOE4vSUJwe9GUX2NNfYdKbC5z64ZfhMW0lK2pdYlyVsG67Un2xVkJ6M1jPMtjhpKdPky5uD/ACNq0fzaWLi6dTlR5+K/MzYAIE2QAAHgAGoAZrXSFtNDLMJKzhK+1uvD1/Csa9s/0Iri/MZ7H4quiqy62ca6qoSnZOT0jGEU3KTfckjnLbLaGzM8XPEy1jWvEw1UudVCfDeXZbN+NL6Fx3UyWyjL3iqu3kx2v8u0h86zNYOjs5ctiXDpMPiG7JyssfWWTk5znNJylKT1bbflNv6F4JZvVoktaMRroktfFj3GoG5dDH44q+YxHoxNxzSnGOEmkt0dho2UVpzxtPWbd5bSekGAzm6OpcxCPST7/wAb9HoI083DpJ9/436PQRp50XAewh8K8DiGZffK37yXiAAZhiAvch99Yb56HpIsi+yH31hvnofeROff6fX/AHU/6WSWTffaP7yPiSNmC8f9lffIkjJPe9PzcfuI3zH2/wCyvvkSRknven5uP3HyPoJ7Wp8K8T6xzn2UC9ADOlmugMo2abtxtTKhvDYWSV2mttuil1KfJRi/Fdr4PimlpxT1MbGYulhabqVXZL59Bfw2GniJqEFtfyNvuujBb05RhFc3JqKX0vgWPr5gl/8AF4b+PV/URBiHK2W/bKVs3+XbJ2S7+Dk3urXsWiXYkUSNPqaaJO0KTt0yt9GbFDRzZ60+5f3Jrw2KqsWtdkLF3wlGS+uLPdEG1wUZKUdYTXKdbdc15pwakvrNx2O2tsjZHD4yzfhPSNV8klOM29FXc1wkpapKenNaPVvUkMt0qo4mapzTg3u23j3mHi8iqUYucHrJc3OSCUY1Km0kERlnPOz5+fpzMcZHOOdnz8/TmY44BV9pL4peJveF9mgAC2ZIAB6gY7OeUfOv8Tfui33j/bWfdE0HOeUfOv8AE37ot94/21n3RPpPQj/t+l1vxIXOPZdqNqR8XNqMmuej+4+0DYOc1q9jkvFP8Jbr8bY/pc5N/abH0UwUs4wWvHSyUl8pQlo0Yza/L3hcfi8O01uXzcde2E3vwl5mpanxsxmXgeNw2K7Kbozkv0OMZ+V+LJv6DbZ+vQdueP0N3mtfDvV54bO46oMXtVTGzA4yElqnhrvL/s5NP60XeW4yvEVQuqnGyuyO9CcXrFp9qZr3Sdn1WCy/EazSuurnTVXr405WRcXou5Jt6+Q1anFuaS33NMpwk6iit90c3x5LzGzdGOLdObYKSeinY65/JshJekomspaLTuMhs3Zu43Btc/C8KvrvrX+JtleN6bT4M3bERvSknwZ1UAgagaKRttb7tmPyo/8Ag8OaSjdtrfdsx+VH/wAHhzSUbDhfZLqNqwnso9S8CoAL5kgAHjBsfRt+MqP2/RZNZCnRt+MqP2/RZNZAZp7bsNYzn2y6vqwACNIgAAAAAAAAAAAAAAAAAAAAAAAAAAAAAAAAAAAAAAAAAAAAAAAAAAAAAAAAAAAAAAAAAAAAAAAAAAAAAAAAAAAAAAAAAAAAAAAAAAAAAAAAAAAAAAAHhjvc7PkS9FnueGO9zs+RL0WUVOS+o8ZEGd8qv2vuiblsZ7zq88/TkabnfKr9r7om57G+86v2/Tkc2o+2kR+HMxqAURnGSC2zDMKMPHfvuqpjrwlZOME/It5+M/IjV+kTa7wGKoo0lirI72r0caIPgrJL8qfB6R8jb4LRxBir53Tdts522y9tZZJzm/Im+UfItEu5GNWxKhsW0xa+LVPYtrJrs28ylPR4tP5NOIkvrjW0emF22yux6RxlcfLZG2mP0ythGP2kGlDH89lwMbz+XBHSNN0ZxU4SU4y4xlFqUZLvUlwaPQ5+2bz7EZfZv4ectxvWyht9TatU2nDlCen5a0fnWqJv2ezirHUQxFL8WXCUX7aE17aEl2NMyqNZVEZlDEKqtm8yQAL5fNH2m53/AC36SNaNl2m53/LfpI1oh8RyjCW99YABYKj5t9rL5L+41HMfaw+WvQmbdb7WXyX9xqOY+1h8tehM63+jD/z/AMP1Ob6fcqh1yJE6C+WM+VV90iSsVUpwnW3Jb8JQ1i9JLeTWsX2Na8yNegvljPlVfdIk9GwZv96n1rwJzRv7hDt8SLsT0O4dR0oxl9aikownGqyCSWiWu6pNJLvMj0ebAWZZi7MVdfXfrQ6adyqVbh1k4ysct6bTbVda1XlJAKSLdTNMTUg4TndPfexmwynCwqKrGCUluYTIX6fcXXPHYKqL/CYfDYmVyXYsTZh+pT8v+rXPTyrvLTPOk7NZWYiqmWFprjfiKoWQolO5V1XTrhJSstde84xT1cGuPI0iyyUpSssnOyybcrLbJynZOTSW9OU+L4JLTklFdyJ7Jsnq0air1LJLclz3VjXM9zyjUouhTu3ezb5rMoT30NYOVOSYKMlpvrEXR8teIxV+Irf0wsiyL+j7Yy3M7I2TUq8DFpzseq69J8a6u1p8nJclrpxJ+pqjCMYQSjGKUYxSSSSWiSS5LQt6R4ynO1GLvZ3fRstbrK9F8uqU9avNWTVlfe+e59sAGrG4gAA8AYZp3ShtUsuwu5VJeF4hOFK14wiuE75LuimvpaXaXaNGVWahDey3Xrwo03UnsUVdml9Mm1XX2PLqZa1VTTxLX+0ti9Y069sIvRtd+ncRxuzfi1xdlj13K485yScmuPkT4+QNt6tvV83KT1bb4tyfa2+3y9hKXRhst1eBxGZXx/CXYW5YWMlxrolXJu3R8pT7P0UvhG9ylTyvCpLa385M53CFXN8ZrPkrf0JfVkVwlqk+HFJ8PMbp0Mfjir5jEejE0qr2sfMvuRuvQx+OKvmMR6MTJzR3wc/hMTJ1bHQ+InoMBnNjqfMQj0k+/wDG/R6CNPNw6Sff+N+j0EaedEwHsIfCvA4jmX3yt+8l4gAGYYgL7IffWG+eh95Yl9kPvrDfPQ+8ic9/0+v+6n/SSWTffqP7yPiSNmPt/wBlffIknJPe9PzcfuI2zH2/7K++RJOSe96fm4/cfI+gntanwrxPrHOfZQ62XpQqUOlmulvmN6qqss+BXKX0xTa+4hVWym3ZJ6ysbsk32yn4z+/7CZ84odmHurXOdc4x87i9PtIXqWkUnqnHg13NcGuPlTNF00c7U0uTtv1m0aOKPrvn2dxd5TgLMVfCivhKWrcnxUIR9tPTtfYl3m817A4NRW9ZiJS04y66UU38mPBGudH2LhVjlvtLrqZVRb5b6lGaTflSaRKDRkaM5bhamF8pOKnJtp322sW86xteFbUi3FJK1tlyI9p8mlgbo1uTsrsTlVY9FLh7aE9OG8lo9e1a9xi5R118q/8AQ3HpUxUJWYWmLTnW52z0ftVKO5FPub11+g058tezj5uHb5DVc8oU6GNlGju2dj4E7lladXDxlU3vZ1ktbH42WIwOHsm9ZuO7Nvm3XJ1tvyvd1+kzBgdgcO4ZdhlJaOUZWacuFk5Tjw791r6zPHVMI5OhBy36qv122mi4lRVaSju1nbvIyzjnP5+fpzMcZHOOc/n5+nMxxwit7SXxS8WbphfZoAAtmSAAeoGOznlHzr/E37ot94/21n3RNBznlHzr/E37ot94/wBtZ90T6T0I/wC36XW/Ehc49l2o2pDUII2A1ojjpj2KnjYrG4SO9iao7tlS0Ur6lq1ua8HbHsT5rVdiIN079U02mmmmmno4tPimmmtHy0OudNTUtrOj/Lsxk7ZQlRiJe2uo3YSm9NE7YNOFj0SWrW9oktSUwWYeSWpPdx4ExgMz8lHUqXa8CBMrz3HYSLhhcXfRBvVxrlpHV83uyTS+g8MwzC/Ez377rL7HwUptzlxfBRXZx04JcSUn0L8X/wDuLS14J4NNpdzfXrV+U2PZvo9y/LE8VZvYm2qLsVl2m7XuJtyrqXixloub3n3aGdLMMOm5RV30KxITzPDRetFXfQrbSAWmm0001wakmmn3NPimX2zsN7GYNf8A1eFfdyvrf3ItMRZvznN/lTlL65N/4mc6OcL12a4GGmq65Tl5FXGU9f3lH6zNqy/VNvgyRrS/UuT91+B00gAaiaMRttb7tmPyo/8Ag8OaSjdtrfdsx+VH/wAHhzSUbDhfZLqNqwnso9S8CoAL5kgAHjBsfRt+MqP2/RZNZCnRt+MqP2/RZNZAZp7bsNYzn2y6vqwACNIgAAAAAAAAAAAAAAAAAAAAAAAAAAAAAAAAAAAAAAAAAAAAAAAAAAAAAAAAAAAAAAAAAAAAAAAAAAAAAAAAAAAAAAAAAAAAAAAAAAAAAAAAAAAAAAAHhjvc7PkS9FnueGO9zs+RL0WUVOS+o8ZEGd8qv2vuibnsb7zq/b9ORpmd8qv2vuibnsb7zq/b9ORzah7aRHYczDPmyajFyb0STbfkS1f2H0eWMoVlc622lOEoNrmlKLi2vLxM4yjnvO8fLFYm7ES522Sa8kU92EV5FFJHxleCsxN1VFXt7ZqEW+UdeLk/Ikm/oJHu6Lqn7ni7Y6fDrhY/scfL9ZdbKbBSwOMhiXiI2xhCyKj1bhLWaSUvbNLRfeRvm03O73EUsJNzu9xfZb0f5fXWozq6+WnjWWt6uXa0uCivIjAdIGw9NOHlicJFwdXjWV6txlX2uOvtWuf1klmH21xUacvxcpPROiyC8srIuuKXl1kjMnRhqvYZ9ShDUewgNG+dDOPcMVdhtfEuq61R7p1tRk/pjKK+g0KK0SXkNx6IKHLMnYuVeHsUvJ1kq1H0GR2Hf6xWIrDO1RWJlABLk2aPtNzv+W/SRrRsu03O/wCW/SRrRD4jlmFHlPrAALBUfNvtZfJf3Go5j7WHy16Ezbrfay+S/uNRzH2sPlr0JnW/0Yf+f+H6nN9PuVQ65EidBfLGfKq+6RJ5GHQXyxnyqvukSeT+cfep9ngTmjf3CHb4g8sU3uS0TbUW0lzfB8Eu89CpG3sTrV9hzvguj/O51xlLA7kpJOcZ4jDqW+1vS13JyXNv/wBDCZvleIwlnUYvD2UWOLlGFii42QTUZThODcLIrWKej4b0d7TeR1Gaf0vZVDE5TiZuK63CQni6JdsZ0wcnFPsU4b0H5J+Y2fCaQ1XUjGoo6rsti3X7TU8dozR8lKdNy1ldq/P4EM7M7SYzLpReGukq0/Gosk50SXwd1+088dNCfNj9oKcywsMTVw1e5bW3rKm2KTlXL6JJp9sZRfac2m+9BWOlXmN2H1e5isNKUl324ecXW/I+rsuTfbuw7iQz3LoTpOtFJSjtfSiM0ezSqqyoTbcZbFfmf+cxN4ANIOgMABgFnneY1YTD24m+W7VTBzk+19kYxX5U5Sail2uSXac37S5zbmGKtxV3BzekIa6qqmLfV1R8yfGXbJt+Q3np3zW2WJoweulMKliGl+XY5SgnLyKOui/SZGr17OfYbto9gFTp+Xlypbuhf3NB0mzF1Knm8dkY7+l/kjZujfZZ5pi92yL8Dw7jPFPssl7avDa/pe2l3RS+Giec7SWExCWiSw9ySXJLq5aEFbLbeYzLsNDDUUYTdjrKU5K3ftnJ6ysnpLRyb/zwL/GdKWZW12VunBpWQlBtK3VKcXFteNz4mNmeX43FV9Zx9VbFtW4zMqzHAYTDqCleTV5Oz3/2NEq9rH5K+43XoY/HFXzGI9GJpcFoku5Ja9+nDUyezmc3ZfiYYqhVynGM4btilutWJJvxXrqtDYMdRlUw8qcd7jY1jLq8KWLjUk9ilvOmwyJtjeknHYvMcHhLacMq8TZbCUq+sUo9XhcTiItbz09tTFftMllHOsVhKmGnqVFZ2udPwmMpYqGvSd1e24hHpJ9/436PQRp5uHST7+xn0egjTzfMB7CHwrwONZl98rfvJeIABmGIC+yH31hvnofeWJfZD76w3z0PvInPf9Pr/up/0klk336j+8j4kjZj7f8AZX3yJJyT3vT83H7iNsx9v+yvvkSTknven5uP3HyPoJ7Wp8K8T6xzn2UOtl6UZUozpZrpRmgbb7L2Kc8VhYqcJazuqTUZKS52V66KSa4uOqfdrrob5OUYqUpPRJNtvkklq2/IRRtZns8fKUdWsKn4lXJWaP3S1cp66aqL1WnYzX9I6uGhhbV1e79VLY78SYyWnWlWvT2Jcq+6xhabIWR3ovei+TWuqaf1xkn9Rk4Z3jYxUI4u7d009snJJ/pPj9PYWNcHJxhBOUpNRjCK1bfYkuehn6tj8fKKbrgtVruuyOq8j0/mc+wFLGzTeF17dD+XWbZiqmHjby2r0a1jX5ybcpyk3J6ucpNtvvcpMzuyOzU8c43WeLg9U+a3sQk/axSesatebejemmmj1MRjsJbh7HVdB1zS13XxTXfCS4SXmPvJMxtwdvW0S01ettf+zu4aaWR+FpwU1xWi5rVOrATp0cXfGxbs9t96fF8e88xMZ1aDWHa2rZ0rguBM0IpJJLRLgkuCS7kuw+izybHwxNML4e1muT5xkuEovyp6l4ddjJSinF3TXy5jn0ouMrPeiMs45z+fn6czHGRzjnP5+fpzMccCre0l8UvFm84X2aAALZkgAHqBjs55R86/xN+6LfeP9tZ90TQc55R86/xN+6LfeP8AbWfdE+k9CP8At+l1vxIXOPZdqNqRXsKIqbAa0Qt0kba5tg8wxGGquhXSt2VelUN7cshvLxnxbWun0GoR23zXrIWSxuImoThOVaklGcYyUpQ0004x1X0kmdN2ytmKqrx2Hg53YaLhbXFayso1ct6K7ZQk29FzUpdqRCOv+f5mxYGnSq0tyulZ8Tacvp0K1HcrpWfE6ryLNKcZRXiaJxsrsjqnF66Pti+6SeqafFNM0/pg2tqwmEng65p4vEw3VCLTdVUtVKya18VNbyXfx7iCsNibatequup3uMupuspcmlot51yW9w7zyk22223KT1lJtuUn3yk+LflLdPKoxnrNtpc1i1TyWMams5XSd7FEiTugHKHZir8ZJeLRDqq332WaOX1RS+s0XZjIcTmOIjh8NFt662WNPq6Y9s7Jdi0fLXV9iOkNlMjpy7C1YWrioLWc2tJWWPjOctO1v6uBVmeKUYeTW9/IrzbFxhT8mn6z+SMsADXzWCNtrfdsx+VH/wAHhzSUbttb7tmPyo/+Dw5pKNiwvsl1G1YT2UepeBUAF4yQAe+AwVuImq6a5WTfZFPh5W+xeU8k0lt2dZ5KSjtewznRt+MqP2/RZNZouxGxTws44i+etyT3a4e1hvLjrL8p6d3A3mKNdx9aNSpeJqeZ14Vat4cysVABgkcAAAAAAAAAAAAAAAAAAAAAAAAAAAAAAAAAAAAAAAAAAAAAAAAAAAAAAAAAAAAAAAAAAAAAAAAAAAAAAAAAAAAAAAAAAAAAAAAAAAAAAAAAAAAAAADwx3udnyJeiz3PDHe52fIl6LKKnJfUeMiDO+VX7X3RNz2N951ft+nI0zO+VX7X3RNz2N951ft+nI5tQ9tIjsOZgAGcZQKMqeWKuhXCVk5KEIpylKT0SS4tt9wPeY+pSUdZSaSS1bfBJLtbfZoQ30j7VrH2KjDvXCVS131yvsXDeXfWux9vPloV292ynj26KHKGEXCT9rLEafC7qf0e3hr3GokdicRf1YkXisTf1IlOwl/olyV4fCvEWRasxLUkmuMal7T69XL6Uad0dbKSx1ixF0WsJW+Gv/xE034kf+zTXjPyJLvUzRikklyS0WnLRdhXhKNvWZXg6FnrsqADOJA0fabnf8t+kjWjZdpud/y36SNaIfEcswo8p9YABYKj5t9rL5L+41HMfaw+WvQmbdb7WXyX9xqOY+1h8tehM63+jD/z/wAP1Ob6fcqh1yJE6C+WM+VV90jdtt8TiKcuxt2EemIpw1t1T3FY3KqLs3VBpqTai0uHNo0noL5Yz5VX3SJNnHVNdjTRsOatLGSb27V4E1o8m8uilsdn9TnPEba5rZzzC5a/F7lXl1W5E2roe2puePnhsZirbli611Er572l9LlJ1wb5SnXOT/8A467zUdt9m55XipUNPweblLCT7HV2Va/DgvF07kn3mEfZxa0aknFuMotPWMozi9YSTSaa5aG3yweGxWGtTjFay2NJbH179+9GqekMXg8X+tlJ6r2pt7V4HViNQ6YMzhh8pxMHJdZi4SwlMdfGc74yjKUV27le/Y/JWyL8D0kZzVWq1fRaorRTvwzstfyp12wUn5d3Xv1NezjM8TjbevxV0rrNN2Lloowhva7tdcUowjr9L0Wrei0g8Jo9VjWTquOqmnse+3MTuN0noSotUr6zVtvNctGzeOhDCuebOzju0YS2UnpwUrZ111xb7N5dc9P+zZo6TbUVFylJqMYxWspSfBRilxcmye+irZeWW4SUrkli8U42X6cdyMVpTQn2qEXL9qc2uDJfPsVGlhnC+2WxLo4kLo5g5VcUqlvVhtv08DcUADQTpAAACIQ6cq5vM62q7JLwSK1jVOUdesnw1iuZonV2fFXfwbv6TqrQaGwYTP50KUaSgmlz3NaxujcMVWdZzab5rI5V6uz4q7+Bd/SUlCfN12pLi26bUklzbbjwR1Uyzz1f6rifmLv7uRlLSeV/Zr+b+xhy0Rp2f6x9yOX09VquTC5qKUm3q0oxlJvTnwiilXtY+Zfcjc+hn8b1fMYj0YmzYqv5GjKra9le1zU8HhVXxCo3sm7XLDoypn695W3XclG7EuTdVkYxi8ux0U5Nx0S3pRXnku86KKFTnuYY54yqqjVtlrXudNy3L44Kl5KLur32qxCPST7+xn+fyEaebh0k+/8AG/5/IRp5u2A9hD4V4HIMy++Vv3kvEAAzDEBe5D76w3z0PvLIvci99Yf56H3kVnv+n1/3U/6SSyb77R+OPiSPmPt/2V98iSck970/Nx+4jbMfb/sr75Ek5J73p+bj9x8jaCe1qfCvE+sc59lDrZelGVKM6Wa6a70h4p1ZfbuvR2uFOq5rrJKL+xkXqOnDkuXk8hJnSXS5ZfOS/wBnZVa/kwsTZGj/AM/585zjTJyeJgnu1dnebjo8l5CT/wCX0RtvRhg4zvvuktXTGEILhwdm85S8+kNPpJDTI36NMxjViLKbGorERg4N8PHr3vF87Um/oJITNq0alDzKGr28b3IPO4zWKlrdFur/ANmp9JmDjPCddp49E4yT04uMnuzin5U/sI7b04kg9JuPhHDxw6adl04txXNVxe9KTXYuCSI9RqGl0oPFq2/VWsT+QqXm/rbr7Or/ANm8dFWJf+s1PXd3oWx7lvJxl9qRvRofRTQ28Vb2a11ru4Jyl9Wq+s3w3TINbzCnrcNnVzGu5uksXO3FeBGWcc5/Pz9OZjjI5xzn8/P05mOOMVvaS+KXizacL7NAAFsyQAD1Hhjs55R86/xN+6LfeP8AbWfdE0LN02opLVuSSS5tvXgvKbvsS54TDdXYvGc3PRfkqSitH3vh9p9KaDLWyGklxl4kRm0XKFlvNwRUxazX9F/WPXX9F/WbJ5GfA17zepwMmzSdrOjbAY+croqWFvlxlZToozaWic62t1vlx4PhzNj9df0X9ZX11/Rf1ldONWm7x2MuU4VqbvDYyK5dC+I46ZlTp2J4ObenlfhC1ZkMn6GqovXF4ydyT13KYKiMvI25TmvoaJE9df0X9Y9df0X9ZkyxOJatcy5YrGNWv4H3kWT4bA0qjDVRqguyK4yfa5SfGUnq+LL/AEMZ66/ov6yvrr+i/rMN0pt3ZguhVbu95kwYv11/Rf1h5t+i/rHkZ8DzzepwNK2t92zH5Uf/AAeHNJRuW0lu/PMJ98l5eWEw6/wNNJ3D7KaT4Gy4VNU0nwRUGV2e2fxONlpTDxNdJWy4Vx46c/ynz4IlHZjY3DYPSbXW3rj1kktIv/s48o+fmWcRjadLZvfAsYvMKdDZvfBGkbLbC4jE6WYjew9PPda0umvJB+0XlfHyEm5Nk+HwdarorUV2vnKXllJ8WZBI+iDr4udZ+s9nA1vE42pXfrPZwKFUAYxiAAAAAAAAAAAAAAAAAAAAAAAAAAAAAAAAAAAAAAAAAAAAAAAAAAAAAAAAAAAAAAAAAAAAAAAAAAAAAAAAAAAAAAAAAAAAAAAAAAAAAAAAAAAAAAAAAAA8Md7nZ8iXos9zwx3udnyJeiyipyX1HjIgzvlV+190Tc9jfedX7fpyNMzvlV+190Tc9jfedX7fpyObUPbSI7DmYKalSmhnGUfGJuhXGU5yjCEIuUpSajGMUtXKTftUl2kL7ebXSzCbqqcoYOEvFT1jK9p+6TXOMe6L46cXo3osn0sbRu614CqX4Gpp4hp8LLU1JVv9CL0b73p3GhkfisR+zEjcXif2Yg27YTYyzHON96deDT1S5SxOnNR7Y1a85dvZ3mK2Pw+BsxDlj74VUVafg5b2t83xUeC9zSXHv4LvJYq2zymMVFYylJJJJKSSS4JJKPBaFOGox5UmUYWjF+tJmfwtEKoRrrioQglGMYrRRS7ElyR6mu+zfKvz2r/j/pLrKtpsDirOqoxNdtjjKe5He13Y6bz4rkt5fWSCnHdck1OO5NGYABUVGj7Tc7/lv0ka0bLtNzv+W/SRrRD4jlmFHlPrAALBUfNvtZfJf3Go5j7WHy16Ezbrfay+S/uNSzH2sPlr0JnW/wBGH/n/AIfqc3095VDrkSH0F8sZ56vukScRX0JYlQeKUlJRluNT08ROOq3dfhaPUk5Yuv4SNgzeL86l2eBM6N1IrAQTdt/iW2fZPh8dTKjE1RtrfHRrjGXZKEucZrsaIj2h6KcbS3LBWQxlWrca7ZKnEpdkVJrqrpeVur6e2ZfDK/hoeF1/DRbweOxGF9m9nOntRnY3A4XFr9Za/M1sZzu9i86XB5Xifoswb+2OIaf0F7lfR1nGIklLCxwsdeNmKuq03W0pbteHlZOUkteEtxPhxXMnvwuv4SHhlfw0Sc9IsU42Siux/mRUNG8CpXcm+htGqbD9H+Fy1q6beKxemnXzjuxh3qirVqteXVyfa2bkjw8Mr+Gh4ZX8NEJXqVa0teo230k/QhRoQUKdklzHuDw8Mr+Gh4ZX8NFrVZe8pDij3B4eGV/DQ8Mr+GhqvgeeUhxPcaHh4ZX8NDwyv4aGq+B75SHFHuW+Z0O2i6uLSlZVZBa66ayg4rVpcFqyvhlfw0PDK/hoKLXMeeUha1yDY9FOdJJf/tvBae/MV2f/AME2Xo22DzLAZhDE4rwPqo1Ww/AYi62xymko+LZhoLTg+OpJvhlfw0PDK/holaub4qrTdOW5q24iKGT4KjVVWG9O+890GeHhlfw0PC6/hoidV8CX8pDiu8hjpJ9/Y3/P5CNPNu6RpqWNxjT1T7f2EaidEwHsIX91eBxPMX/1lV//AHJeIAN22O6OsXjd22/ewuHenGS/CzX6MH7VeVleJxdLDx1qjt4suYDLcRjZ6lGLb+S63zGn4HCW32RqprnbZJ6RhCLk39XL6STNnujaeHqeMx0/wtaU68PW/FhLVaOyf5T8keHlZJGzezmEy+G5hqlHVeNY/Gtn8qb4vv05c+B7bQ+9bvk/4o59pHn1SvhKsKfqx1Jdb2PuOs6O6F0cJVhVxD15qSaX7MX9e3Z0EZ5j7f8AZX3yJJyT3vT83H7iNcx9v+wvvkSTkfven5uP3HzzoH7Wp8MfE65nPsodbL4oVKM6Ya6eONw8ba51TWsZxcZLySWhDeaZfZhLpUWrRrV1yfBW1a6RnF9r5JrsfnWs1MsM4ynD4uvq8RWrFzi+U4S+FCa4wl5UQudZPHH00k7SW5/RkplmYvCTd1eL3r6ohyS+z6NO569j1MpRtJmMIqEMXPdXBb1dM5afLnDVvzmazHYK+Dbw90bI9kbluz8i348G/K0jGvZDM+yir/eI/wBJo8cqzXByapKS6YvYzZvPcDXinNxdve5u8w11krJysslKdkuc5ybk/Jr3eTkKKZ2ThXVF2WTe7GEfynz58opJatvkk3yRseE2Jx1jSsdVMe173Wy/ZS0X1m6bPbPUYJPq1vWSWk7p8ZyS46LsjDXsXcub4l/A6M4rE1NfEXiue79ZlnFZzQow1aVpPmS3f51HpszlSweHhSmnL21sl+XbLjNrydnmSMoyhU6RCnGnFQjsSVl1I06c3OWtLe9rIyzjnP5+fpzMcZHOOc/n5+nMxxwOt7SXxS8WbxhfZoABotoyGwVXYktW+CS5t9yXeZTJcivxTTjHcr7bJcFp+ivyvoN6yPZ+jCpOK37NONk+f7K5RRt+R6H4vMLTn+rp8XvfUv8AEReMzWlQ2L1pcF9WaFhsmxWu88PctNHF7ktU+PFNcno2Xfrdjfi8T9UySUiunmO8ZPSjlmFjhqSvGPO9+0gZ5xUm7uK+f5ka+t2N+LxP1THrfjfi8T9UyStPMNPMSnpGfBFHpWfuojX1vxvxeJ+qY9b8b8XifqmSVp5hp5h6RnwQ9Kz91Ea+t+N+LxP1THrfjfi8T9UyStPMNPMPSM+CHpWfuojX1vxvxeJ+qY9b8b8XifqmSVp5hp5h6RnwQ9Kz91Ea+t+N+LxP1THrfjfi8T9UyStPMNB6RnwQ9Kz91EWY7JcXKqyMcPdJyhJJbj1lJ68W5cOPDn3F/sv0e6aW456vg1h4tOK+ckvbPyLh5yQ9CqRTUzCpKOqtnUU1c0qzjqqy6jyw2HjXFQrioRitFGKSSXkSPbQAwXtI0AAAAAAAAAAAAAAAAAAAAAAAAAAAAAAAAAAAAAAAAAAAAAAAAAAAAAAAAAAAAAAAAAAAAAAAAAAAAAAAAAAAAAAAAAAAAAAAAAAAAAAAAAAAAAAAAAAAAAAAAHhjvc7PkS9FnueGO9zs+RL0WUVOS+o8ZEGd8qv2vuibnsb7zq/b9ORpmd8qv2vuiblsZ7zq/b9ORzaj7aRHYczJj9osesLhb73/ALKqUl8rTSP/ABNGQMbtHlEMbh54ec5QjNxbcNN7xXrpx7DNd7bDJle2w5+nNyblJ6yk3KTfbKT1b187PnQlb/Rfhfzm/wD4P5D/AEX4X85v/wCD+RGPCzbuRXmVTfsIp/z/AJ4FSVf9F+F/Ob/+D+Q/0X4X85v/AOD+R55pUPPMqvR3kUm2dEn41h+rYj76Tav9F2F/Ob/+D+Rk9mNhqMBiFiYXWzkq51pT3dNLHFvl2+Ii7Sws4zTZco4ScZps2wAEgSZo+0/O/wCW/SRrRs20643/AC/8UayQ+I5RhR5T6wAfdNcpyUYxcpSekYxW835kuZZSbdkVI8rPay+S/uZrFtSluqWukZKTSaWuia03tHpwfPR/SS7s9sPKek8Z4sfiYvxmtOU5LkvIjY1sblv5rX9v8zqWhNWWWQqSrRf6y1kt6tfea1pHo1XzPybpyjHUvvvzkXZdtVRh641VYSUYRS0StX0t+LxflZc+zeH5vL+JH+kkn2G5b+a1/b/Mew3LfzWv7f5m2vM8G3dwl3kbHRfNopRVakkv+LI29m8Pzef8Rf0j2bw/N5/xF/SST7Dct/Na/t/mPYblv5rX9v8AM89JYL3Jd5V9mc3/ABqf8rI29m8Pzef8Rf0j2bw/N5/xF/SST7Dct/Na/t/mPYblv5rX9v8AMeksF7ku8fZnN/xqf8rI29m8Pzef8Rf0j2bw/N5/xF/SST7Dct/Na/t/mPYblv5rX9v8x6SwXuS7x9mc3/Gp/wArI29m8Pzef8Rf0j2bw/N5/wARf0kk+w3LfzWv7f5j2G5b+a1/b/MeksF7ku8fZnN/xqf8rI29m8Pzef8AEX9I9m8Pzef8Rf0kk+w3LfzWv7f5j2G5b+a1/b/MeksF7ku8fZnN/wAan/KyNvZvD83n/EX9I9m8Pzef8Rf0kk+w3LfzWv7f5j2G5b+a1/b/ADHpLBe5LvH2Zzf8an/KyNvZvD83n/EX9I9m8Pzef8Rf0kk+w3LfzWv7f5j2G5b+a1/b/MeksF7ku8fZnN/xqf8AKyNvZvD83n/EX9I9m8Pzef8AEX9JJPsNy381r+3+Y9huW/mtf2/zHpLBe5LvH2Zzf8an/KyNvZvD83n/ABI/0lHtvHR6YaWvzqWvne7wJK9huW/mtf2/zHsNy381r+3+Y9JYL3Jd4+zOb/j0/wCVkD55jHfK65xUXYpPdT104cte3h2nxs1s3jMxnuYarWOvj3T1jTXr2ynpxfkWr+8nmexmWNNPCVtPmuP8zM4PCVUwjXVCNcIrSMIJRivMkZNXSRRhq0YWfTuRYwOgE/Kupi6iabu1HY2+vmNS2M6O8JgN223TFYnn1k4pQg+HuVfFR5c3q+fHTgbpun0ga1XxFSvLWqO7OiYPA0cJBU6MVFLh9XzlNDHbQ+9bvk/4oyLMdtF71u+T/iiLzL7rU+CXgZ9Hlx60Rlj1rNLR+1S5eWXIkTJbd2ipTTjJQipR7mvMaZhrFCas3YyklpFy7P8A1Mh692d0P8/ScB0fzaGX3k3tas1bgbPj6c66jFWsue5t/hEe/wCxjwiHf9jNQ9fLO6A9fLO6Bs/20h/iZGejanR3m3+ER7/sY8Ij3/YzUPXyzugPXyzugPtpD/Ex6NqdHebd4RHv+xjr49/3mo+vlndAr6+Wd0B9tIf4meejKnR3m3eEQ7/sY6+Hf9jNQ9fLO6BX18s7oD7aQ/xMejanR3m2+ER7/sZXr4/5TNQ9fLO6Alndn6CH2zh/iZ76NqdBhc3fGfz0/TmY8v8AMW5aaLWUrNdI8W29XokvOZvItkbLNLMTrXHmq17dryv8k07LcpxOZ1WqEW7ttvmV3zs2Hzmnh6ac3bxZruBwdt8lCqDnJ9i5Jd8nyijdch2QhXpPEtW2LioL3KP1+3flaS8hsOBwVVEdyqEYR8i4vyt9rLnQ67kWhGFwVqlf9ZPp5KfQufrZr2MzipW9WHqr5vtKRgktEtEuCS7CuhUG8JJbEQ5TQaFQegpoNCoAKaDQqACmg0KgApoNCoAKaDQqAAAAAAAAAAAAAAAAAAAAAAAAAAAAAAAAAAAAAAAAAAAAAAAAAAAAAAAAAAAAAAAAAAAAAAAAAAAAAAAAAAAAAAAAAAAAAAAAAAAAAAAAAAAAAAAAAAAAAAAAAAAAAAAAeGO9zs+RL7me544uDlCaXNxkl52mUT5L6jx7iI80qlOVMILek3JJaeSL4+Tg/qNuyGmWGojU3vtNtvTgteOi8harZ/FfA4rtU9H9DXFD2P4z4Mv4sv6jnjy7EqblGEu4jIqceZmY8Ifcv8/SPCH3f5+sxHsfxnwZfxZf1D2P4z4Mv4sv6j3zLG+7LuLmtU91mX8Ifd/n6x4Q+7/P1mI9j+M+DL+LL+oex/GfBl/Fl/UPMsZ7su4a1T3WZfwh93+frHhD7v8AP1mI9j+M+DL+LL+oex/GfBl/Fl/UPMcZ7su4a1T3WZfwh93+frHhD7v8/WYj2P4z4Mv4sv6h7H8Z8GX8WX9Q8xxnuy7jzWqe6zL+EPu/z9Y8Jfcv8/SYj2P4z4Mv4sv6h7H8Z8GX8WX9Q8xxnuy7j3Wqe6zD7RS3uuffN+ka4jdcXszi5wcY1rj2ua0XHtMzs9sdRRpO7S+3s1X4OL8kXzfnLlLJcTXnaSceLf8Am08pUZy3qxp+z+yuIxekmupp+MmuL+RDnLz8ESJkWQYfBx0qhrPTxrZ8bJfT2LyLRGUUT6RteBymjhlsV5cWZsKaiUURoVBLFwaFNCoAKaDQqABoU0KgApoNCoAGhTQqACmg0KgAaFNCoAKaFdAACmg0KgApoV0AAKaDQqAAAABofMo68z6B41cHx1Mfgx+pFOpj8GP1I9AUeRh7q7ke3Z59TH4MfqRXqY/Bj9SPsDyUPdXchdnx1Mfgx+pDqY/Bj9SPsDyUPdXchdnx1Mfgx+pFOpj8GP1I9APJQ91dyF2fHUx+DH6kU6mPwY/Uj0A8lD3V3IXZ8dTH4MfqRR0x+DH6kegHkoe6u5C7PPqY90fqR96FQVRhGO5WPCiRUAqAAAAAAAAAAAAAAAAAAAAAAAAAAAAAAAAAAAAAAAAAAAAAAAAAAAAAAAAAAAAAAAAAAAAAAAAAAAAAAAAAAAAAAAAAAAAAAAAAAAAAAAAAAAAAAAAAAAAAAAAAAAAAAAAAAAAAAAAAAAAAAAAAAAAKaFQAU0KgAAaAADQaAADQaAADQaAADQAAFNBoVAAAAAAAAAAAAAAAAAAAAAAAAAAAAAAAAAAAAAAAAAAAAAAAAAAAAAAAAAAAAAAAAAAAAAAAAAAAAAAAAAAAAAAAAAAAAAAAAAAAAAAAAAAAAAAAAAAAAAAAAAAAAAAAAAAAAAAAAAAAAAAAAAAAAAAAAAAAAAAAAAAAAAAAAAAAAAAAAAAAAAAAAAAAAAAAAAAAAAAAAAAAAAAAAAAAAAAAAAAAAAAAAAAAAAAAAAAAAAAAAAAAAAAAAAAAAAAAAAAAAAAAAAAAAAAAAAAAAAAAAAAAAAAAAAAAAAAAAAABRlhmOdYTDyUb8Vh6ZS5RturhJ8uyT17UWe3udPLssx+OUd54TC3XRjz1lCDcdV3b2hxV6n7oYj0gU5ptBnuZ43rZ46eFqVEq3NTjVXfZKUroy/BRWIrhCC0S3Jc9VoB3bVbGaUoSjKLWqlFqSa701wZ6I5uxuf09FuQYDLJTxOe4/GYu6ODp1lF7kpeLGutuTjXFOuG7DnKfBLUv+j71RssZisxy3NMkxWVZrg8uvzGjB3uVc8XXh8O8TKlK2ClTa6lvpyWjin3cQOggcqYb1YPW4aeMq2WzSzCUWbuJxVct7C0xlo4RniI1uFdrT5Sa5o3Sr1SOCvzbZrLsJgrL6to8LhsTXiXbGPgzvxmMwVlFlenjWVW4K6MtHo2vIATuUk9OL4LvINzz1QleEzraDKHld1sshwNmOnZC+EfCYVeBuUIRlHxJbuMT48Pwb7zRo+qTwu02WZvga8tx2FVeR5njMbfRiq67aa6a7XGGFs3GuvdSjLWS01bXYAdU12KSTi1JPk000/M0fUn9Hf5jkzY/ptwOy2xmT24TC5hj54/GY2rB0Y7E124rdhiJb07rKoJSjr4sYwXbE2bIPVG4jGZthNnsds7jctxmNpkrliZbnUqdd042quUd6dLhGHjd7a7ADofD4uqzXq7a7N3Te3Jxnpry13XwPbVnAXqduldbKYbaGyrJsfmOuY7+Iuw1clhMFhYylXU8TcouNLlY5JKTRsPT705YvH17H5rltOa4Km6V1+JrpnZCjFOOMjRPARtgty/EaYWb04tK+PDiAduanhisbVVp1ltVevLrJxhr36bz4o13or2rnneV0ZjZgMTlsr5XR8DxkZRxFSqtnWnNSjF+Mo7yenKSOXdus7xeZ59hsNPG5bl08xuzmcsyzaqu7D4LDZZmOJy3D5XhoXTjXC5Rwqss4pznfFvTRIA7KqsUkpRalFrVSi0013prmj6It6KcJPKsweTRxUcXh7MnwmZqyuO7RXieuswmIlhob8lVhbtyuyNabUXGzTXUtumfZzbDMMZUsizzD5Ll1WGc7rJVRsvnid6WsWpRaVO5uvXXg0AS2DjHok6fNocFk+1uJzaxZtHJXTTgsZKMIb+YYnFywVdMpwUY2UcrmktVGt8fHiYPEbV9JuGySnbKzOKJ5ZZZC6OCahKTqstdcd/DRwyUaE18bqktQDunUHGnTz0xbSWVbK5nl2Kjl2U5zDDzhGjdeLljIupY6q9zi11EHaoxa5tMufVO9PWY1Z77HMqx/rTRhZ11Y/Muq6+52ThGyUaoJPWMYSS0WjlJ6arTUA7CPGzGVRmq5W1xsemkJTipvXlpFvV6kaepl2pw+ZZHXCvO/X3EYK66jFY2eHeEvcp2Tupjbh5SbilTZCCkm1Lq3x1UkoR6a8IrOlvZtJ7rlTg5N/NPGTS+nTT6QDsAHN2I9UxisZnGJy3Z/Z3GZxRhMRHDXY2mF064t2Ot3T6mt9TRrGWjnxag35Btz6pnEYbNMfluUZBis4WVRfh+Iw3WWV1OuO9fL8FB7lUHGcd6emrrl3AHSIOcs/8AVW5dh8qybNKMuxOKjmt2Lw1lMLa1ZgsVgpYTrqJrR9dKUMVCcXHmnHv0Mp0ceqJWa7Q1ZBicjzDKrcTXdbh5Y2MqrZQrrldXOdFkYyhXOqE2pcVwS4gE6YrEV1LesnCtN6azlGK17tZNcT6rsUkpRalFrVSi0015GuGhzj/+oVRv7LYeTenVZrhpvhrrrVfXp5PdNfoIm2L6fJ4Xo/xeUKycc9w8o5RgYaNXvCYxSVeIrhpvOVVW/WtOKkq32gHcWFxdVuvV212ac+rnGemvfuvge+pwx6jDbDC7OZBtTneLUp04a7A1Rpr06y+6yFipqhJ8E5SaWr5atm8Yj1XeJwlNGJzHZXH4fDYxQswOIcpVU4mhpylKq22G5bLdcGt1vnq+aAOr9TwjjKnPq1bW7OP4NTg5rTi9YJ68EcabfdL+Z5X0hYiyOCzrEYWrDQqjk8HdHwixVaeFU0bjUqN7XxlHjuviYzF7Wes/Sfm2Y15ZjcxxM8Hd1GAy+qduJsxF2HplJyhCLluQpjc5PR6KAB3Mi3sxlUZquVtcbG0lCU4qbb5JRb1bfYRf6nXpmp2ww+NtrwdmClg7YVyhOyNm+rIbykpLl3aEJ+qCwkZdK2yTSSlKeUzk9Obqxtso/ZBeYA7EBzTmXqqtzFZvg8Ps1meLtym+6m14bXEQisPfZRdffOmt9RTrW2nLh5S+zH1UuAq2awed+A3PF5hjMVgsLlvWRc52YRx663rF7amMbaOS1cropd4B0QGRv0Gbd5rn2HxOIzLJMRkiqsrhRXioX1W4iMoKbsjC6EW6+KWq7UySACyzHNcNht1YjEU0OfCHW2Qr3327qk+JcX3RgnKc4wiucpNRiteC1beiOEPVZeF7V7U5jgsv0tq2Zyi2+xaNpuuVU8XuSXDe0sg/7KfdwkvNNt1tD0SYvFWzV2Lw+Djgcdq05eF4O2mKsnw4Tsq6i/8AtgDp6WY4dKLd9Ok/a621pS46eK9ePHhwLpH587U4Cp5T0YR3fdcRUpP8vS7H0ucYvsTf+B2/0o7WrIsoxubSw88VDBVdbOmuca5SgmlJxnNNLSPH6ADZ5vRat6JcW3wWnlZSqaktYtST5NNNfQ1zOVbvVG4PajKc9wccuzDC14bJLsbjL8Piq6r4buIw9Lqwtm61GzdtlJSktHuNdpabI9OOC2X2SyCOBweZZlfmuJzBYLD4zERvxfV1Y11yds6YaOTnZXCFcIrXXyMA62nLTi+CXFt8El2t69h44bF126uqyuxLTVwnGemvfut6HPeznqhbMzzevZrG7P4zLMXisHjOv8Lluup1ZdicXL8DKKlKqSpcU+3eIG9S70wexXJMxnDJcwzFTxtVmKxVEJrB4WHVONauxG44V2PsUmgD9A9SqOIenrpvxmJxeyGaZfVmuEw1tdOKvoqnZXVjk8TXK3B0yity+3SMq9ePt1wRKW3/AKo3G4SrZ+rA5DZPNc9jZZHAY+7wV4eMcRZh66pzmo6XzlFPxtEk/KgDowFjTi7vBVdOhwv6jrJ4bfi3G1Q3nT1i1j7bhvLVHO3R76rfAZvmGGy9ZZfhZYiy7eutvrnXTh6cPZiZ2S3FrOe7VJbq07ADpcHK1/qqsfXGnNp7OThsxfmUsvpzSV+ltsoxnKTrqftnu1WvXTd/BTjrvRaW35709Yqe1WE2cyXKo5hGdWHxGKxFmIjh5Rw98K7nbhozajYoUWxlo3q3wS4MAnoHOnSL6ofMMPmWcYPIsiea4bZ6l25zjZ3dVXh9xN27vLeUdy1aLWT6mxpNRbXntN6q7L8FgMkzBZbiL6c3runPctrTwk8NbGrE0yi1484uWq0fFJgHR4Oc9kvVQ05jmWQ4CGU21xz5uVNsr4N0VvMMbgIucVHxp72Bslw4eMl3myX9P2EozvaHKcXhZ017P4KeNtxisUo3QhHDNVxr01jOUsTCK7NQCaCk5aLVvRcW2+SS7WcxbP8Aqncw8Iyi3N9np5dk2e3WVZfj+u35zirI1RslVzjHWcHq0t5PejrHifW3Hql7J47NstyrZ/GZxg8v6zD4/F4VWXKMHv13WbtMHuVrSxay4fg5PkAdJ4HH03uapuqtdbSsVdkZ7jktUpbr4NouTlT/APTeqismzeSS3pZhUpS71GjxfSf1nVYAAAAAAAAAAAAAAAAAAAAAAAAAAAAAAAAAAAAAAAAAAAAAAAAAAAAAAAAAAAAAAAAAAAAAAAAAAAAAAAAAAAAAAAAAAAAAAAAAAAAAAAAAAAAAAAAAAAAAAAAAAAAAAAAAAAAAAAAAAAAAAAAAAAAAABZ51l9eLw9+FuW9ViKbKbEtNXCyLhLTXt0fA4zwvRT0ibG4zG4fZTE+EZZi5q2MtzC2xe7rGDsw+LhNU4hRai5Q03lCOuqjHTtgAHKG1vQrtjmGS5LjcTmVWK2nyfHW46lXyUvEsujfGiV78SycLIRaTSjurd5aaeOQ9Ge1GIzLN9rtq5YSi/D5Hj8LhsNhWmpueX3YXe3YyaqrjXO1vVtuU12HWp53VRsjKE4qUJJxlGSTjKLWjUk+DTQB+fXQtkO22abJYvKsmw+W35NmWIsrusvlCGLpnFx62MJuaUa24p70oya46NGzeqC2Gy7ZTZ7ZyMc1hh9rMhrjZhpUJqzGU4rMr8Vaq95e54fE34mcJPhp1ia8dadr5VlmHwlfV4WiqivVy3KYRrjq+b0itNSz2g2Yy/MJVyx2Cw2LlSpKqV9ULHXvuLkouS4JuEf3UAcs9CXRBmuNyHaDPswc8RtDtLgrqsL4TNVONF8oTcrOCjV1soQe7yjCqtRS0N46POjDPMD0d5js3dXh1mmIqzOmmEbqnS4Y1vd3ro8Frvz4vivoR0HXBRSjFKMYpKMVwSS4JJdi0PsA4s2+6LI5RsTkUM8zBZLmmVZldLDYqiNuNpjLEYiV1bnLCxc4RioxkpRWqlovKYLodxOZ7Q7e4TGzzV7QvCYCcb8zrwcsFhaYqF/V4auuVNca1vWN67q3pWWPjxZ3Vi8LVdHctrrthrru2QjOOvfuyTWp8YLAUUa9TRTTvab3VVwr3tOWu4lqAcqbC9Bm0OE2c2yy2+nDRxWdzhPAxjiq5QkleptWTXCvxV2mO2u6DdqI7MbIYLBYfCyzHI8ZjcViqnfGUVdZjJ34WyE29yde4ob0Uu1ctHr2KADVOiyzO5ZXh5bQxwsM2bt6+OD9wjHrJdSo8X43VbmvHnqaJ0ndCdeZWWTwkcqlTisRPF4jAZvgL8Xha8baoq/G4GzBYnD4jB3XOEXbGM3CyS33HecnKZgAaX0W7AUZHQ4qzr8TZVh6LL9x1whhsJGUMJgsLXKUpU4OmM57sHOT1sm3JuTZpXqmMq2zzHDrLtmlhKsHiqZRxuJniPB8bF72nU02SlpGuUG02o689GtSaQAci9GHQ9tPfk2P2SzjA5ZleTXYGy2nF4SCsxVmc1YnB2YbE4q3rXK1vq5OTSWsKlBbsdEazLoX6ScRga9lsRjMMshruSjNzw0q40ws34SU1WsTKtPxlXvc5aPuO4AAcx9O/QXmeKy/Y/K8irpuw+QO3wqy+6vD2T08BUbUnwlObqxEpacnp3lekDow2myna3FbV7L0ZdmDzGiVeIwuYOUeonONMLHWo2QlJSVMXqpcHKaa5adNgAgn1JHRNmGzdObYvNZUxx2dYii2zC4ZqVOGrw7xMoJSXDflLF28E2kow7dTE9J3RTnmO2/yfaLC10vLcDHBRtsliYV2rqpYh37tT4yW7ZFeXidGAA5J2T6Mdutks6zGGzywGKyfM8bXfZPEOtzjSrJyWqk1Kq+Fd0483F6J6MrtN0U7a5LnGe4nZZ4PEYHaNWPERxEodbh5XdZvab7W7ZGV1rU4+LpJap7qOtQAcY5t6mXPaMo2ZwWFeGxWIweaY7Nc1k8RGqFdmLeWQhVQ7Pdd2nApN/CT04NEo5j0YZtZ0i5dtJGqn1rw2Xxw1tjvgrlYsFiqXu0+2kt+2C18rfYT6ACFfVf9H2a7S5Jh8BlMa53xzCq+2Nt8cPB0wpvi9XLhPx51+L5New0TAep5xS2o2fzqyqp04TAU4nMq9+D384wNW7hkpJ/hN+9UWOfLSnTynUoAONejj1NOex2b2gybMZYfC3Y6zA4nAyhiVfS7sG3PdtVb8RS9rvcdFNmN256IeknP8py/L8wWXOrK5dVRT4RCu+5KpVrEX3NtWNKKj2c29DtwAHL3TFsDtn7MqdpNnsPgZtZfRhovE2Rddb8dXV3Rk05aSlqpx04adzMpsZ0V59Tt/ftJi68MsFdhLqpWV4iDl11mGjDhT7ZQ6xNHRoAIE9R/0W5pszh83hmtVNduMxsLqHTfG9SpUJJqW77V73eYrpZ6J89zLb3JM+w1dEssy63LHbOWJrhbGvD4h24lQp03pLSTenbq0dIAA5n6Nuh7PMDj9vMRiKaI15/HHetzjia5ubvxeMurVsV7lrC+HPlxNLs9TXn8tk8qw8fB6c9yTNsdjcPV18J0X0YzwWUkrVrFXKeEoklLhpGa7Vr2YADl/arL+lTMshdUrMPgMyWPjrLL8RXhLbsB1G60rYtyrs697zcXDgifNm6syw+SYSGKaxeb05ZRDEPrIxWIzCGGirX1rSilK9Se9olxNkABxZsX6knNcwsx2N2hzSeW4zFYq2yUMB1eJjiFe3bbOyxWLd1snNbmj4FxsR0DbW5blG1eRurDXYPNqYeAzWMqX+s4e9KFs65P8ErMO3vacdYVrsWnZYAOSc86Edo7cBsRTDC4Z27P3Vzx0XjKkt2rFV2rqpPhNuEWdAdOOz2KzbZ3NsuwcYzxWMwllNMZzVcHOa0W9OXCKN2ABz/s70Z55R0cYjZudeHWb2YfEYeEFdW6WrcVvR1uSUdepb4vjr3kTdIPRksi2U2Xnm+ZrIs6ynMMXXhcTVXbj8NricTLFR654WuUlpCmDT3XHVuLTUjtk8cZhKro7t1Vdsddd2yEZx179JJrUA4a6C3mWf7erMnmTz6OFy3GxxGaQwc8FhlK3AX4SrDV1yqrjBKzER08Vby3nx5m3dHvQLtFgtjdo8kvowyx2ZX4azCxji6pVyjXFKe/YuEGn3nWuCwNFCappqpUmnJVVwrTa5NqCWrLgA5A6Q+hTaj1n2LqyzD4WWN2fi7L65Xxkq8bG2q+Ficnu21OdfJd3lRk+nXo62y2owOQYXFZdk6x8JzvxeaU2Tqnl8+sknTBpt9S6+qlpGUt6VXJNRa6sABjclwNmHwdGHstlfbTh66p3S13rZwrUXN69ra1II9Sv0P5pkuSZ3lWdQpplmVmlUqLoX6VzwrplJyr0aalx0bOiQAcI5b6m7aHAWywi2dyDNoRxEurzXGYzMoylh2+GuHpx1dEWo6+2qbTb5viSf0jdE2f5rtbkmKw2Cy7K8DkscE1meEtmrr6KXVKWFknFTm4Ku2qKaa3LOL0lKJ0+ADjHpV9TtnENoczzHAZRlW0GBzOyWKqrx+Jx+GlgrrJuc4OOCxlDs0k+cpSTi+UXqZbaDoL2gujsZLDZdlWDlk2KliswowmJaw9UpY+jEt1RxMpStk4VybTlJapLV6nXAAIN9VB0Q4zPfW/OMjsjhdospnDwa5yjV12H6zfVUrZJqMqrJTshrqvwlsWvH1WqdHfqdsfZlW0Vu0GLU9oto6bKLcSpRuhhodbG6Gk4JJqdldTlGKSjGuEYrSKOnQAcQdHnQBtBgcZgacTsxs9iI4bGVyvzXEY3M5W20V3qzfVMcd4OrN3gt2lcIxTWure0y6JNtshz3O3sxZgHlu0FrlbicS4b2EjbO2yUlXwcLKnfbpommt1aNpHWwAONtjuh7bzJdlsdl2WWV4DMb82oxEp4XHVK27AeC3V2113xjvUWK7qJaxcW0no+afVHRrhcwoyjLac1t67MqsHRDHW7/WdZiVBdbLfSW9rLXjobCAD/9k=;" vertex="1" parent="7">
                    <mxGeometry x="510" y="90" width="218.29" height="123" as="geometry"/>
                </mxCell>
            </root>
        </mxGraphModel>
    </diagram>
</mxfile>